<svg id="undraw_online_friends_re_eqaj_2_1" data-name="undraw_online_friends_re_eqaj (2) 1" xmlns="http://www.w3.org/2000/svg" width="267" height="208" viewBox="0 0 267 208">
  <path id="Vector" d="M0,3.366V3.9a3.512,3.512,0,0,0,.913,2.38,3,3,0,0,0,2.2.987H29.531a3,3,0,0,0,2.2-.986,3.51,3.51,0,0,0,.913-2.38V3.366a3.509,3.509,0,0,0-.723-2.154A3.326,3.326,0,0,0,31.4.673H17.7a.6.6,0,0,1-.44-.2A.7.7,0,0,1,17.073,0H3.115a3.006,3.006,0,0,0-2.2.987A3.514,3.514,0,0,0,0,3.366Z" transform="translate(38.54 175.473)" fill="#3f3d56"/>
  <path id="Vector-2" data-name="Vector" d="M0,0H3.24V24.776H0Z" transform="matrix(-1, 0, 0, -1, 56.36, 207.387)" fill="#3f3d56"/>
  <path id="Vector-3" data-name="Vector" d="M0,3.378c0,.378,4.909.146,10.965.146s10.965.232,10.965-.146S17.021,0,10.965,0,0,3,0,3.378Z" transform="translate(43.899 203.886)" fill="#3f3d56"/>
  <path id="Vector-4" data-name="Vector" d="M1.378,7.185,12.433,9.092l12.844,2.216,4.453.768a1.542,1.542,0,0,0,1.215-.315,1.792,1.792,0,0,0,.654-1.15l.2-1.363.187-1.268.154-1.045a1.884,1.884,0,0,0-.028-.7,1.81,1.81,0,0,0-.281-.634,1.612,1.612,0,0,0-.606-.539H13.99a.6.6,0,0,1-.44-.2.7.7,0,0,1-.183-.476V3.857a.7.7,0,0,1,.183-.476.6.6,0,0,1,.44-.2h6.774l-3.123-.539L8.041.989,2.437.022A1.545,1.545,0,0,0,1.219.337,1.8,1.8,0,0,0,.563,1.49L.019,5.163A1.885,1.885,0,0,0,.313,6.476a1.629,1.629,0,0,0,1.065.709Z" transform="translate(42.246 171.085)" fill="#00b4d8"/>
  <path id="Vector-5" data-name="Vector" d="M0,1.613V22.137a1.841,1.841,0,0,0,.479,1.247,1.576,1.576,0,0,0,1.154.517H5.079a1.576,1.576,0,0,0,1.154-.517,1.841,1.841,0,0,0,.479-1.247V1.613A1.833,1.833,0,0,0,6.37.539,1.6,1.6,0,0,0,5.737,0H.972a1.611,1.611,0,0,0-.63.539A1.838,1.838,0,0,0,0,1.613Z" transform="translate(67.523 176.146)" fill="#00b4d8"/>
  <path id="Vector-6" data-name="Vector" d="M.009,4.839a1.892,1.892,0,0,0,.13.531,1.731,1.731,0,0,0,.466.66l.008.005,9.834,8.621.144.124,2.036,1.786.615.539H23.891l-.613-.539L14.862,9.185,9.222,4.241,4.834.4a1.551,1.551,0,0,0-.9-.388l0,0A1.534,1.534,0,0,0,3.633.01a1.475,1.475,0,0,0-.426.113,1.168,1.168,0,0,0-.264.145,1.619,1.619,0,0,0-.406.385L.4,3.5l-.032.046a1.8,1.8,0,0,0-.3.608,1.886,1.886,0,0,0-.058.685Z" transform="translate(57.127 138.182)" fill="#00b4d8"/>
  <path id="Vector-7" data-name="Vector" d="M.3,6.056a4.427,4.427,0,0,0,.795,1.355l6.547,7.6a1.615,1.615,0,0,0,.545.358,1.521,1.521,0,0,0,1.251-.06,1.647,1.647,0,0,0,.514-.409l.182-.224.08-.1,2.829-3.428,1.216-1.476a1.546,1.546,0,0,0,.209-.3c.03-.054.057-.11.082-.167a1.913,1.913,0,0,0,.137-.8,1.855,1.855,0,0,0-.152-.674,1.737,1.737,0,0,0-.384-.556L6.558.907A3.849,3.849,0,0,0,3.617.029l0,0a4,4,0,0,0-.688.156c-.1.03-.2.067-.3.108A4.036,4.036,0,0,0,.97,1.556,4.564,4.564,0,0,0,.052,3.7,4.727,4.727,0,0,0,.3,6.056Z" transform="translate(57.442 138.16)" fill="#2f2e41"/>
  <path id="Vector-8" data-name="Vector" d="M24.982,13.5c0,7.455-5.592,13.5-12.491,13.5S0,20.953,0,13.5,5.592,0,12.491,0,24.982,6.043,24.982,13.5Z" transform="translate(42.139 104.934)" fill="#00b4d8"/>
  <path id="Vector-9" data-name="Vector" d="M1.378,7.183l4.633.8.1.019,7.043,1.215,4.438.768,6.524,1.126.187.032.969.167,4.453.768a1.542,1.542,0,0,0,1.215-.315,1.792,1.792,0,0,0,.654-1.15l.389-2.628.155-1.045c0-.005,0-.011,0-.016H6.31a.6.6,0,0,1-.44-.2.7.7,0,0,1-.183-.476V5.715a.7.7,0,0,1,.183-.476.6.6,0,0,1,.44-.2h8.164V2.1l-.5-.086-2.462-.426L2.435.022A1.543,1.543,0,0,0,1.218.336,1.793,1.793,0,0,0,.563,1.487l-.2,1.36L.02,5.163A1.88,1.88,0,0,0,.313,6.476a1.624,1.624,0,0,0,1.065.707Z" transform="translate(49.926 169.227)" fill="#00b4d8"/>
  <path id="Vector-10" data-name="Vector" d="M0,29.761c0,11,1.034,17.586,16.984,15.7l.065-.008a44.227,44.227,0,0,0,8.406-1.737A23.885,23.885,0,0,0,29.6,41.961c.314-.172.615-.353.912-.539H18.606a.6.6,0,0,1-.44-.2.7.7,0,0,1-.183-.476v-.531a.7.7,0,0,1,.183-.476.6.6,0,0,1,.44-.2H26.77V22.536a2.06,2.06,0,0,1,.536-1.4,1.763,1.763,0,0,1,1.291-.579h6.642c-.057-.178-.115-.358-.177-.539a46.019,46.019,0,0,0-2.211-5.435A41.965,41.965,0,0,0,28.719,7.7a27.8,27.8,0,0,0-3.7-4.091C22.521,1.379,19.8,0,17.039,0,6.856,0,0,18.757,0,29.761Z" transform="translate(37.63 134.724)" fill="#2f2e41"/>
  <path id="Vector-11" data-name="Vector" d="M.013,8.587,0,8.083a3.63,3.63,0,0,0,2.209-.539A1.528,1.528,0,0,0,2.6,7.038,1.648,1.648,0,0,0,2.765,6.4.952.952,0,0,0,2.709,6,.89.89,0,0,0,2.5,5.671a1.324,1.324,0,0,0-1.444-.014l-.386.191L1.406,0l.462.068-.63,4.975a1.533,1.533,0,0,1,.808-.093,1.584,1.584,0,0,1,.751.335,1.382,1.382,0,0,1,.34.512,1.48,1.48,0,0,1,.094.621,2.18,2.18,0,0,1-.217.855,2.019,2.019,0,0,1-.53.677A4.042,4.042,0,0,1,.013,8.587Z" transform="translate(54.355 114.848)" fill="#2f2e41"/>
  <path id="Vector-12" data-name="Vector" d="M0,0H2.514V.5H0Z" transform="translate(58.511 115.346)" fill="#2f2e41"/>
  <path id="Vector-13" data-name="Vector" d="M0,0H2.514V.5H0Z" transform="translate(50.575 115.346)" fill="#2f2e41"/>
  <path id="Vector-14" data-name="Vector" d="M14.13,19.846A5.528,5.528,0,0,1,18.5,17.433a18.571,18.571,0,0,1,5.583.6,13.816,13.816,0,0,0,6.25.284,5.986,5.986,0,0,0,2.483-1.308,6.609,6.609,0,0,0,1.705-2.349,9.152,9.152,0,0,0,.459-5.679,10.42,10.42,0,0,0-3.125-5.125A15.261,15.261,0,0,0,21.047.007a17.426,17.426,0,0,0-10.59,4.024,18.809,18.809,0,0,0-6.1,10.334,20.837,20.837,0,0,0,.868,12.188c.842,2.111,2.06,4.014,3,6.072a9.656,9.656,0,0,1,1,6.28,5.958,5.958,0,0,1-1.336,2.534,5.337,5.337,0,0,1-2.3,1.517,3.557,3.557,0,0,1-2.415-.171,3.924,3.924,0,0,1-1.836-1.7,3.726,3.726,0,0,1,.42-4.675A3.185,3.185,0,0,1,2.9,35.717a3.015,3.015,0,0,1,1.3-.146,3.073,3.073,0,0,1,1.247.42,3.327,3.327,0,0,1,.993.918A3.823,3.823,0,0,1,7.1,39.554c-.065.476.609.682.675.2a4.561,4.561,0,0,0-.493-2.892A4.032,4.032,0,0,0,5.177,35a3.674,3.674,0,0,0-2.721.054A4.065,4.065,0,0,0,.414,37a4.908,4.908,0,0,0,.645,4.956A4.508,4.508,0,0,0,3.1,43.566a4.154,4.154,0,0,0,2.52.161,6.218,6.218,0,0,0,4.056-3.9,9.039,9.039,0,0,0-.342-6.386c-.831-2.17-2.065-4.117-3.041-6.208a18.756,18.756,0,0,1-1.66-6.041A20.369,20.369,0,0,1,7.152,9.084a16.653,16.653,0,0,1,9.055-7.437,15.977,15.977,0,0,1,11.369.325c3.558,1.515,6.993,4.816,6.952,9.25a7.09,7.09,0,0,1-2.011,5.089c-1.6,1.51-3.838,1.639-5.855,1.4s-4-.878-6.039-1.041a8.817,8.817,0,0,0-5.269.958,5.453,5.453,0,0,0-1.83,1.835.358.358,0,0,0,.6.382Z" transform="translate(30.532 94.877)" fill="#2f2e41"/>
  <path id="Vector-15" data-name="Vector" d="M.144,4.612a1.466,1.466,0,0,0,.067.143,1.552,1.552,0,0,0,.082.14l5.463,8.5.424.66,4.456,6.927,4.3,6.687,1.739,2.709a1.552,1.552,0,0,0,.157.207,1.584,1.584,0,0,0,1.019.539H17.9V19.564l-.5-.776-5.59-8.693L5.8.758A1.63,1.63,0,0,0,4.753.028,1.539,1.539,0,0,0,3.531.314L1.689,1.7.7,2.438a1.767,1.767,0,0,0-.641.978A1.9,1.9,0,0,0,.144,4.612Z" transform="translate(46.505 143.149)" fill="#00b4d8"/>
  <path id="Vector-16" data-name="Vector" d="M.437,6.39l.247.536,0,0,.067.143,4,8.591a1.653,1.653,0,0,0,1.01.8A1.534,1.534,0,0,0,7,16.255l.259-.175.065-.043,5.164-3.5a1.687,1.687,0,0,0,.472-.467,1.831,1.831,0,0,0,.269-.628,1.9,1.9,0,0,0,.025-.691,1.854,1.854,0,0,0-.223-.648L7.362,1.79A4.08,4.08,0,0,0,5.1.14,3.8,3.8,0,0,0,2.383.4,3.929,3.929,0,0,0,1.83.729,4.408,4.408,0,0,0,.137,3.273a4.729,4.729,0,0,0,.3,3.117Z" transform="translate(45.358 141.163)" fill="#2f2e41"/>
  <path id="Vector-17" data-name="Vector" d="M0,0V20.276a1.841,1.841,0,0,0,.479,1.247,1.576,1.576,0,0,0,1.154.517H5.079a1.576,1.576,0,0,0,1.154-.517,1.841,1.841,0,0,0,.479-1.247V0Z" transform="translate(75.204 176.146)" fill="#00b4d8"/>
  <path id="Vector-18" data-name="Vector" d="M0,20.2v.531a1.278,1.278,0,0,0,.255.769,1.114,1.114,0,0,0,.647.421c.035.005.07.013.1.016s.075.005.115.005H39.54a2.244,2.244,0,0,0,1.645-.736,2.622,2.622,0,0,0,.683-1.777V2.513A2.622,2.622,0,0,0,41.185.736,2.244,2.244,0,0,0,39.54,0H11.112A2.243,2.243,0,0,0,9.469.737a2.622,2.622,0,0,0-.682,1.776V18.984H1.121a1.081,1.081,0,0,0-.793.355A1.263,1.263,0,0,0,0,20.2Z" transform="translate(55.115 154.747)" fill="#fff"/>
  <path id="Vector-19" data-name="Vector" d="M0,20.2v.531a1.278,1.278,0,0,0,.255.769,1.114,1.114,0,0,0,.647.421c.035.005.07.013.1.016s.075.005.115.005H39.54a2.244,2.244,0,0,0,1.645-.736,2.622,2.622,0,0,0,.683-1.777V2.513A2.622,2.622,0,0,0,41.185.736,2.244,2.244,0,0,0,39.54,0H11.112A2.243,2.243,0,0,0,9.469.737a2.622,2.622,0,0,0-.682,1.776V18.984H1.121a1.081,1.081,0,0,0-.793.355A1.263,1.263,0,0,0,0,20.2Zm.5.531V20.2a.7.7,0,0,1,.183-.476.6.6,0,0,1,.44-.2H9.286V2.513a2.06,2.06,0,0,1,.536-1.4A1.763,1.763,0,0,1,11.112.539H39.54a1.763,1.763,0,0,1,1.292.578,2.061,2.061,0,0,1,.537,1.4V19.425a2.061,2.061,0,0,1-.537,1.4,1.763,1.763,0,0,1-1.292.578H1.121a.6.6,0,0,1-.44-.2A.7.7,0,0,1,.5,20.726Z" transform="translate(55.115 154.747)" fill="#3f3d56"/>
  <path id="Vector-20" data-name="Vector" d="M3.833,2.071A2,2,0,0,1,1.916,4.142,2,2,0,0,1,0,2.071,2,2,0,0,1,1.916,0,2,2,0,0,1,3.833,2.071Z" transform="translate(78.525 163.645)" fill="#00b4d8"/>
  <path id="Vector-21" data-name="Vector" d="M0,0H.5V2.424H0Z" transform="translate(63.909 174.016)" fill="#3f3d56"/>
  <path id="Vector-22" data-name="Vector" d="M132.923.663H.307A.3.3,0,0,1,.09.566.346.346,0,0,1,0,.332.346.346,0,0,1,.09.1.3.3,0,0,1,.307,0H132.923a.3.3,0,0,1,.217.1.346.346,0,0,1,.09.235.346.346,0,0,1-.09.235A.3.3,0,0,1,132.923.663Z" transform="translate(133.77 9.981)" fill="#cacaca"/>
  <path id="Vector-23" data-name="Vector" d="M5.552,3A2.9,2.9,0,0,1,2.776,6,2.9,2.9,0,0,1,0,3,2.9,2.9,0,0,1,2.776,0,2.9,2.9,0,0,1,5.552,3Z" transform="translate(142.961)" fill="#3f3d56"/>
  <path id="Vector-24" data-name="Vector" d="M5.552,3A2.9,2.9,0,0,1,2.776,6,2.9,2.9,0,0,1,0,3,2.9,2.9,0,0,1,2.776,0,2.9,2.9,0,0,1,5.552,3Z" transform="translate(152.551)" fill="#3f3d56"/>
  <path id="Vector-25" data-name="Vector" d="M5.552,3A2.9,2.9,0,0,1,2.776,6,2.9,2.9,0,0,1,0,3,2.9,2.9,0,0,1,2.776,0,2.9,2.9,0,0,1,5.552,3Z" transform="translate(162.142)" fill="#3f3d56"/>
  <path id="Vector-26" data-name="Vector" d="M16.311,35.254a15.46,15.46,0,0,1-9.062-2.971,17.4,17.4,0,0,1-6.008-7.911A18.951,18.951,0,0,1,.313,14.188,18.108,18.108,0,0,1,4.777,5.163,15.974,15.974,0,0,1,13.129.339a15.184,15.184,0,0,1,9.424,1,16.655,16.655,0,0,1,7.32,6.492,18.653,18.653,0,0,1,2.749,9.793A18.393,18.393,0,0,1,27.84,30.085a15.738,15.738,0,0,1-11.528,5.169Zm0-34.59A14.878,14.878,0,0,0,7.59,3.522a16.75,16.75,0,0,0-5.782,7.613,18.238,18.238,0,0,0-.893,9.8,17.427,17.427,0,0,0,4.3,8.686,15.373,15.373,0,0,0,8.037,4.642,14.612,14.612,0,0,0,9.07-.965,16.028,16.028,0,0,0,7.045-6.248,17.951,17.951,0,0,0,2.645-9.424,17.7,17.7,0,0,0-4.6-11.989A15.146,15.146,0,0,0,16.311.663Z" transform="translate(143.041 26.539)" fill="#cacaca"/>
  <path id="Vector-27" data-name="Vector" d="M15.171,8.2c0,4.527-3.4,8.2-7.585,8.2S0,12.724,0,8.2,3.4,0,7.585,0,15.171,3.67,15.171,8.2Z" transform="translate(150.858 133.776)" fill="#e4e4e4"/>
  <path id="Vector-28" data-name="Vector" d="M.008,5.215,0,4.908a2.2,2.2,0,0,0,1.342-.327.928.928,0,0,0,.239-.307,1,1,0,0,0,.1-.387.578.578,0,0,0-.034-.242.541.541,0,0,0-.13-.2.8.8,0,0,0-.877-.008L.4,3.552.854,0l.281.042L.752,3.063a.931.931,0,0,1,.491-.057.962.962,0,0,1,.456.2.839.839,0,0,1,.206.311.9.9,0,0,1,.057.377,1.324,1.324,0,0,1-.132.519,1.226,1.226,0,0,1-.322.411A2.454,2.454,0,0,1,.008,5.215Z" transform="translate(154.222 139.797)" fill="#2f2e41"/>
  <path id="Vector-29" data-name="Vector" d="M0,0H1.527V.306H0Z" transform="translate(156.745 140.099)" fill="#2f2e41"/>
  <path id="Vector-30" data-name="Vector" d="M0,0H1.527V.306H0Z" transform="translate(151.927 140.099)" fill="#2f2e41"/>
  <path id="Vector-31" data-name="Vector" d="M6.275,7.975A3.6,3.6,0,0,1,.805,6.291,4.535,4.535,0,0,1,.966,2.819,4.315,4.315,0,0,1,2.176,1.414,3.933,3.933,0,0,1,3.822.693,7.231,7.231,0,0,1,8.448,1.5a.267.267,0,0,0,.168.032.276.276,0,0,0,.155-.078c1.37-1.18,3.361-.668,4.766.157a10.968,10.968,0,0,1,3.74,3.824,12.566,12.566,0,0,1,1.741,5.243,12.832,12.832,0,0,1-.888,5.919,11.87,11.87,0,0,1-3.434,4.71c-.272.22-.006.721.27.5a12.2,12.2,0,0,0,3.53-4.628A13.218,13.218,0,0,0,19.6,11.3,13.1,13.1,0,0,0,18,5.552,11.954,11.954,0,0,0,14.1,1.292c-1.685-1.1-4.034-1.684-5.7-.246L8.718,1A8.111,8.111,0,0,0,4.13.056,4.778,4.778,0,0,0,.7,2.182,4.989,4.989,0,0,0,.046,4.06a5.117,5.117,0,0,0,.125,2,4.417,4.417,0,0,0,.89,1.727A3.994,3.994,0,0,0,2.57,8.9a4.031,4.031,0,0,0,2.036.31,4.122,4.122,0,0,0,1.938-.741c.282-.209.015-.709-.27-.5Z" transform="translate(151.026 128.705)" fill="#2f2e41"/>
  <path id="Vector-32" data-name="Vector" d="M14.975,8.091c0,4.469-3.352,8.091-7.487,8.091S0,12.56,0,8.091,3.352,0,7.488,0,14.975,3.623,14.975,8.091Z" transform="translate(151.486 38.726)" fill="#e4e4e4"/>
  <path id="Vector-33" data-name="Vector" d="M2.026,5.4A2.541,2.541,0,0,1,.472,5a1.27,1.27,0,0,1-.334-.426A1.371,1.371,0,0,1,0,4.038a.931.931,0,0,1,.059-.391.869.869,0,0,1,.214-.322,1,1,0,0,1,.472-.211.964.964,0,0,1,.508.058L.859.043,1.15,0l.466,3.679-.243-.12a.832.832,0,0,0-.908.009.56.56,0,0,0-.134.208A.6.6,0,0,0,.3,4.027a1.036,1.036,0,0,0,.1.4.961.961,0,0,0,.247.318,2.284,2.284,0,0,0,1.39.339Z" transform="translate(155.18 44.812)" fill="#2f2e41"/>
  <path id="Vector-34" data-name="Vector" d="M0,0H1.581V.317H0Z" transform="translate(153.019 45.125)" fill="#2f2e41"/>
  <path id="Vector-35" data-name="Vector" d="M0,0H1.581V.317H0Z" transform="translate(158.011 45.125)" fill="#2f2e41"/>
  <path id="Vector-36" data-name="Vector" d="M6.911,7.155A4.2,4.2,0,0,1,3.031,9.1a3.26,3.26,0,0,1-1.906-.91A3.72,3.72,0,0,1,.078,6.242a5.074,5.074,0,0,1,.1-2.229A4.8,4.8,0,0,1,1.222,2.087,6.492,6.492,0,0,1,5.181.073a9.157,9.157,0,0,1,4.1.415,9.689,9.689,0,0,1,3.585,2.188,10.149,10.149,0,0,1,2.451,3.55,10.655,10.655,0,0,1,.76,4.3,11.584,11.584,0,0,1-.915,4.245,10.849,10.849,0,0,1-2.386,3.514,9.447,9.447,0,0,1-.794.672c-.233.176-.453-.236-.222-.411A9.959,9.959,0,0,0,14.3,15.525a10.751,10.751,0,0,0,1.245-3.85,10.247,10.247,0,0,0-.25-4.08A9.69,9.69,0,0,0,10.45,1.506,9.094,9.094,0,0,0,6.762.468C4.185.346.965,1.589.483,4.688A3.434,3.434,0,0,0,1.926,8.233a3.3,3.3,0,0,0,2.019.377,3.406,3.406,0,0,0,1.872-.9,4.684,4.684,0,0,0,.714-.8c.17-.24.553,0,.38.24Z" transform="translate(152.757 33.681)" fill="#2f2e41"/>
  <path id="Vector-37" data-name="Vector" d="M16.311,35.254a15.46,15.46,0,0,1-9.062-2.971,17.4,17.4,0,0,1-6.008-7.911A18.951,18.951,0,0,1,.313,14.188,18.108,18.108,0,0,1,4.777,5.163,15.974,15.974,0,0,1,13.129.339a15.184,15.184,0,0,1,9.424,1,16.655,16.655,0,0,1,7.32,6.492,18.653,18.653,0,0,1,2.749,9.793A18.393,18.393,0,0,1,27.84,30.085a15.738,15.738,0,0,1-11.528,5.169Zm0-34.59A14.878,14.878,0,0,0,7.59,3.522a16.75,16.75,0,0,0-5.782,7.613,18.238,18.238,0,0,0-.893,9.8,17.427,17.427,0,0,0,4.3,8.685,15.373,15.373,0,0,0,8.037,4.642,14.612,14.612,0,0,0,9.07-.965,16.028,16.028,0,0,0,7.045-6.248,17.951,17.951,0,0,0,2.645-9.424,17.7,17.7,0,0,0-4.6-11.989A15.146,15.146,0,0,0,16.311.663Z" transform="translate(143.041 73.037)" fill="#cacaca"/>
  <path id="Vector-38" data-name="Vector" d="M16.311,35.254a15.46,15.46,0,0,1-9.062-2.971,17.4,17.4,0,0,1-6.008-7.911A18.951,18.951,0,0,1,.313,14.188,18.108,18.108,0,0,1,4.777,5.163,15.974,15.974,0,0,1,13.129.339a15.184,15.184,0,0,1,9.424,1,16.655,16.655,0,0,1,7.32,6.492,18.653,18.653,0,0,1,2.749,9.793A18.393,18.393,0,0,1,27.84,30.085,15.738,15.738,0,0,1,16.311,35.254Zm0-34.59A14.878,14.878,0,0,0,7.59,3.522a16.75,16.75,0,0,0-5.782,7.613,18.238,18.238,0,0,0-.893,9.8,17.427,17.427,0,0,0,4.3,8.685,15.373,15.373,0,0,0,8.037,4.643,14.612,14.612,0,0,0,9.07-.965,16.028,16.028,0,0,0,7.045-6.248,17.951,17.951,0,0,0,2.646-9.424,17.7,17.7,0,0,0-4.6-11.989A15.146,15.146,0,0,0,16.311.663Z" transform="translate(143.041 122.654)" fill="#cacaca"/>
  <path id="Vector-39" data-name="Vector" d="M15.493,8.371c0,4.623-3.468,8.371-7.746,8.371S0,12.994,0,8.371,3.468,0,7.746,0,15.493,3.748,15.493,8.371Z" transform="translate(150.495 83.977)" fill="#e4e4e4"/>
  <path id="Vector-40" data-name="Vector" d="M2.1,5.588A2.629,2.629,0,0,1,.488,5.174a1.314,1.314,0,0,1-.345-.44A1.419,1.419,0,0,1,0,4.178a.963.963,0,0,1,.061-.4A.9.9,0,0,1,.284,3.44a1.031,1.031,0,0,1,.489-.218,1,1,0,0,1,.526.061L.889.045,1.19,0l.482,3.806L1.42,3.682a.861.861,0,0,0-.94.009.58.58,0,0,0-.139.216.619.619,0,0,0-.036.26,1.072,1.072,0,0,0,.106.414.994.994,0,0,0,.256.329A2.363,2.363,0,0,0,2.1,5.26Z" transform="translate(153.567 90.274)" fill="#2f2e41"/>
  <path id="Vector-41" data-name="Vector" d="M0,0H1.636V.328H0Z" transform="translate(151.332 90.598)" fill="#2f2e41"/>
  <path id="Vector-42" data-name="Vector" d="M0,0H1.636V.328H0Z" transform="translate(156.496 90.598)" fill="#2f2e41"/>
  <path id="Vector-43" data-name="Vector" d="M8.944,20.521,14.3,18.273c.876-.367,1.757-.724,2.629-1.1a2.956,2.956,0,0,0,1.012-.644,2.213,2.213,0,0,0,.5-1.055,11.728,11.728,0,0,0,.139-2.643A21.729,21.729,0,0,0,18.37,10a14.41,14.41,0,0,0-1.618-4.987C15.25,2.346,12.661.342,9.683.5a5.815,5.815,0,0,0-3.79,1.627,2.489,2.489,0,0,1-.358.375.461.461,0,0,1-.285.021q-.187-.013-.375-.02a7.179,7.179,0,0,0-1.3.059,3.963,3.963,0,0,0-2.146.963,2.785,2.785,0,0,0-.66.843A2.992,2.992,0,0,0,.457,5.421a2.4,2.4,0,0,0,.153,1,2.246,2.246,0,0,0,.548.827c.639.582,1.551.378,2.318.334l2.809-.161,1.423-.081c.293-.017.292.476,0,.492l-3.783.217a15.31,15.31,0,0,1-1.843.081,1.981,1.981,0,0,1-1.266-.55A2.763,2.763,0,0,1,.122,6.41a2.94,2.94,0,0,1-.07-1.389A3.786,3.786,0,0,1,.674,3.658a3.464,3.464,0,0,1,1.081-.973,6.027,6.027,0,0,1,3.667-.639l-.161.072A6.35,6.35,0,0,1,10.82.047,8.2,8.2,0,0,1,16.2,3.336a14.129,14.129,0,0,1,2.662,6.9,24.786,24.786,0,0,1,.164,4.084,5.52,5.52,0,0,1-.281,1.765,2.459,2.459,0,0,1-1.1,1.271,15.066,15.066,0,0,1-1.742.773l-1.974.828-3.877,1.626L9.065,21c-.274.115-.392-.361-.121-.475Z" transform="translate(149.688 80.46)" fill="#2f2e41"/>
  <path id="Vector-44" data-name="Vector" d="M0,2.544A2.692,2.692,0,0,1,.4,1.131,2.4,2.4,0,0,1,1.453.194,2.192,2.192,0,0,1,2.814.049a2.306,2.306,0,0,1,1.205.7,2.614,2.614,0,0,1,.644,1.3,2.735,2.735,0,0,1-.134,1.47A2.512,2.512,0,0,1,3.662,4.66a2.231,2.231,0,0,1-1.308.429A2.271,2.271,0,0,1,.69,4.342,2.655,2.655,0,0,1,0,2.544Zm.456,0a2.171,2.171,0,0,0,.32,1.14,1.939,1.939,0,0,0,.852.756,1.767,1.767,0,0,0,1.1.117A1.859,1.859,0,0,0,3.7,3.995a2.108,2.108,0,0,0,.52-1.051,2.206,2.206,0,0,0-.108-1.185,2.026,2.026,0,0,0-.7-.921A1.8,1.8,0,0,0,2.354.492a1.832,1.832,0,0,0-1.342.6A2.141,2.141,0,0,0,.456,2.544Z" transform="translate(164.702 79.159)" fill="#2f2e41"/>
  <path id="Vector-45" data-name="Vector" d="M56.132,5.457H2.525a2.433,2.433,0,0,1-1.785-.8A2.844,2.844,0,0,1,0,2.729,2.844,2.844,0,0,1,.74.8,2.433,2.433,0,0,1,2.525,0H56.132A2.362,2.362,0,0,1,57.1.208,2.522,2.522,0,0,1,57.918.8a2.753,2.753,0,0,1,.547.885,2.933,2.933,0,0,1,0,2.088,2.753,2.753,0,0,1-.547.885,2.522,2.522,0,0,1-.819.591,2.362,2.362,0,0,1-.966.208Z" transform="translate(198.765 46.107)" fill="#e4e4e4"/>
  <path id="Vector-46" data-name="Vector" d="M38.846,5.457H2.525a2.433,2.433,0,0,1-1.785-.8A2.844,2.844,0,0,1,0,2.729,2.844,2.844,0,0,1,.74.8,2.433,2.433,0,0,1,2.525,0H38.846a2.362,2.362,0,0,1,.966.208A2.522,2.522,0,0,1,40.631.8a2.753,2.753,0,0,1,.547.885,2.933,2.933,0,0,1,0,2.088,2.753,2.753,0,0,1-.547.885,2.522,2.522,0,0,1-.819.591,2.362,2.362,0,0,1-.966.208Z" transform="translate(198.765 36.767)" fill="#e4e4e4"/>
  <path id="Vector-47" data-name="Vector" d="M56.132,5.457H2.525a2.433,2.433,0,0,1-1.785-.8A2.844,2.844,0,0,1,0,2.729,2.844,2.844,0,0,1,.74.8,2.433,2.433,0,0,1,2.525,0H56.132a2.433,2.433,0,0,1,1.785.8,2.844,2.844,0,0,1,.74,1.929,2.844,2.844,0,0,1-.74,1.929A2.433,2.433,0,0,1,56.132,5.457Z" transform="translate(198.765 92.605)" fill="#e4e4e4"/>
  <path id="Vector-48" data-name="Vector" d="M38.843,5.457H2.522a2.434,2.434,0,0,1-1.784-.8A2.844,2.844,0,0,1,0,2.729,2.844,2.844,0,0,1,.739.8,2.434,2.434,0,0,1,2.522,0H38.843a2.433,2.433,0,0,1,1.785.8,2.844,2.844,0,0,1,.74,1.929,2.844,2.844,0,0,1-.74,1.929,2.433,2.433,0,0,1-1.785.8Z" transform="translate(198.768 83.265)" fill="#e4e4e4"/>
  <path id="Vector-49" data-name="Vector" d="M56.132,5.457H2.525a2.433,2.433,0,0,1-1.785-.8A2.844,2.844,0,0,1,0,2.729,2.844,2.844,0,0,1,.74.8,2.433,2.433,0,0,1,2.525,0H56.132a2.433,2.433,0,0,1,1.785.8,2.844,2.844,0,0,1,.74,1.929,2.844,2.844,0,0,1-.74,1.929A2.433,2.433,0,0,1,56.132,5.457Z" transform="translate(198.765 142.222)" fill="#e4e4e4"/>
  <path id="Vector-50" data-name="Vector" d="M38.846,5.457H2.525a2.433,2.433,0,0,1-1.785-.8A2.844,2.844,0,0,1,0,2.729,2.844,2.844,0,0,1,.74.8,2.433,2.433,0,0,1,2.525,0H38.846a2.433,2.433,0,0,1,1.785.8,2.844,2.844,0,0,1,.74,1.929,2.844,2.844,0,0,1-.74,1.929A2.433,2.433,0,0,1,38.846,5.457Z" transform="translate(198.765 132.882)" fill="#e4e4e4"/>
  <path id="Vector-51" data-name="Vector" d="M117.267.663H.307A.3.3,0,0,1,.09.566.346.346,0,0,1,0,.332.346.346,0,0,1,.09.1.3.3,0,0,1,.307,0h116.96a.3.3,0,0,1,.217.1.346.346,0,0,1,.09.235.346.346,0,0,1-.09.235A.3.3,0,0,1,117.267.663Z" transform="translate(0 207.337)" fill="#3f3d56"/>
</svg>
