<svg xmlns="http://www.w3.org/2000/svg" width="24.444" height="35.156" viewBox="0 0 24.444 35.156">
  <g id="clarity:lock-solid" transform="translate(-1.177 -2.622)">
    <path id="Vector" d="M21.111,14.044V9.289A9.111,9.111,0,0,0,12.222,0,9.111,9.111,0,0,0,3.333,9.289v4.756H0V32.933a2.222,2.222,0,0,0,2.222,2.222h20a2.222,2.222,0,0,0,2.222-2.222V14.044ZM13.333,25.411v3.078H11.111V25.311a2.667,2.667,0,1,1,2.222.1Zm5.556-11.367H5.556V9.289a6.889,6.889,0,0,1,6.667-7.067,6.889,6.889,0,0,1,6.667,7.067Z" transform="translate(1.177 2.622)" fill="#700bef"/>
  </g>
</svg>
