<svg id="Group_5" data-name="Group 5" xmlns="http://www.w3.org/2000/svg" width="755" height="769" viewBox="0 0 755 769">
  <path id="Path_37" data-name="Path 37" d="M377.5,769C585.987,769,755,666.514,755,540.09S585.987,311.18,377.5,311.18,0,413.667,0,540.09,169.013,769,377.5,769Z" fill="#f0f0f0"/>
  <path id="Path_38" data-name="Path 38" d="M594.3,619.518c-24.755-15.011-24.755-39.344,0-54.354s64.89-15.011,89.644,0,24.754,39.343,0,54.354S619.051,634.528,594.3,619.518Z" fill="#e0e0e0"/>
  <path id="Path_39" data-name="Path 39" d="M90.814,621.6,25.7,582.126c-3.669-2.221-3.669-5.839,0-8.06L404.449,344.4a14.064,14.064,0,0,1,13.283,0l65.13,39.478c3.669,2.221,3.669,5.839,0,8.06L104.112,621.6a14.094,14.094,0,0,1-13.3,0Z" fill="#e0e0e0"/>
  <path id="Path_40" data-name="Path 40" d="M324.867,551.23l55.982-33.992c5.768-3.5,8.652-8.077,8.652-12.671v-8.179l-58.065-34.4a12.624,12.624,0,0,1-3.942-4.346,13.329,13.329,0,0,1-1.634-5.751V379.384l-97.735,59.335V511.2a13.424,13.424,0,0,0,1.644,5.745,12.713,12.713,0,0,0,3.931,4.351l49.413,29.887C294.617,558.231,313.331,558.231,324.867,551.23Z" fill="#00b4d8"/>
  <g id="Group_3" data-name="Group 3" opacity="0.6">
    <path id="Path_41" data-name="Path 41" d="M324.867,551.23l55.982-33.992c5.768-3.5,8.652-8.077,8.652-12.671v-8.179l-58.065-34.4a12.624,12.624,0,0,1-3.942-4.346,13.329,13.329,0,0,1-1.634-5.751V379.384l-97.735,59.335V511.2a13.424,13.424,0,0,0,1.644,5.745,12.713,12.713,0,0,0,3.931,4.351l49.413,29.887C294.617,558.231,313.331,558.231,324.867,551.23Z" opacity="0.6"/>
  </g>
  <path id="Path_42" data-name="Path 42" d="M251.565,524.036v8.145l-17.913-10.854a12.673,12.673,0,0,1-3.927-4.351,13.386,13.386,0,0,1-1.632-5.746V438.719l18.618-11.292c.384,4.965.8,10.1,1.2,15.145l-13.09,7.91v56.625a13.325,13.325,0,0,0,1.632,5.753A12.6,12.6,0,0,0,240.4,517.2Z" opacity="0.3"/>
  <path id="Path_43" data-name="Path 43" d="M234.822,507.124a13.393,13.393,0,0,0,1.641,5.747,12.672,12.672,0,0,0,3.935,4.35l42.651,25.814c11.536,6.984,30.25,7,41.8,0l56.078-33.992c11.552-7,11.552-18.343,0-25.343l-42.684-25.814a12.717,12.717,0,0,1-3.924-4.353,13.409,13.409,0,0,1-1.635-5.744V391.146L234.95,450.482Z" fill="#00b4d8"/>
  <path id="Path_44" data-name="Path 44" d="M234.822,507.124a13.393,13.393,0,0,0,1.641,5.747,12.672,12.672,0,0,0,3.935,4.35l42.651,25.814c11.536,6.984,30.25,7,41.8,0l56.078-33.992c11.552-7,11.552-18.343,0-25.343l-42.684-25.814a12.717,12.717,0,0,1-3.924-4.353,13.409,13.409,0,0,1-1.635-5.744V391.146L234.95,450.482Z" opacity="0.3"/>
  <path id="Path_45" data-name="Path 45" d="M349.541,464.8l-11.36-6.882a12.711,12.711,0,0,1-3.924-4.354,13.4,13.4,0,0,1-1.635-5.743V391.146l-97.736,59.336v56.642a13.393,13.393,0,0,0,1.641,5.747,12.682,12.682,0,0,0,3.935,4.35l11.215,6.731Z" opacity="0.5"/>
  <path id="Path_46" data-name="Path 46" d="M389.517,496.4v8.178c0,4.594-2.9,9.155-8.652,12.672L324.787,551.23a40.428,40.428,0,0,1-19.948,5.2v-8.145a40.417,40.417,0,0,0,19.948-5.2l56.078-34.009C386.617,505.593,389.517,501,389.517,496.4Z" fill="#00b4d8"/>
  <path id="Path_47" data-name="Path 47" d="M389.517,496.4v8.178c0,4.594-2.9,9.155-8.652,12.672L324.787,551.23a40.428,40.428,0,0,1-19.948,5.2v-8.145a40.417,40.417,0,0,0,19.948-5.2l56.078-34.009C386.617,505.593,389.517,501,389.517,496.4Z" opacity="0.5"/>
  <path id="Path_48" data-name="Path 48" d="M77.8,577.515a14.342,14.342,0,0,0,13.507-.252l378.124-229.28a15.876,15.876,0,0,0,4.926-5.461,16.8,16.8,0,0,0,2.044-7.21V14.033a16.281,16.281,0,0,0-1.83-7.053A15.432,15.432,0,0,0,469.9,1.564a14.268,14.268,0,0,0-13.491.269L78.285,231.181a15.826,15.826,0,0,0-4.9,5.485,16.726,16.726,0,0,0-1.995,7.22V565.113a16.3,16.3,0,0,0,1.8,7A15.443,15.443,0,0,0,77.8,577.515Z" fill="#00b4d8"/>
  <path id="Path_49" data-name="Path 49" d="M91.359,577.246l378.125-229.28a15.844,15.844,0,0,0,4.931-5.458,16.743,16.743,0,0,0,2.038-7.213V14.033c0-4.661-3.124-6.563-6.969-4.224L91.359,239.09a15.865,15.865,0,0,0-4.928,5.46,16.774,16.774,0,0,0-2.042,7.211V573.022C84.389,577.684,87.513,579.585,91.359,577.246Z" fill="#00b4d8"/>
  <path id="Path_50" data-name="Path 50" d="M91.359,577.246l378.125-229.28a15.844,15.844,0,0,0,4.931-5.458,16.743,16.743,0,0,0,2.038-7.213V14.033c0-4.661-3.124-6.563-6.969-4.224L91.359,239.09a15.865,15.865,0,0,0-4.928,5.46,16.774,16.774,0,0,0-2.042,7.211V573.022C84.389,577.684,87.513,579.585,91.359,577.246Z" opacity="0.5"/>
  <path id="Path_51" data-name="Path 51" d="M90.333,585.593a14.316,14.316,0,0,1-12.529-.27,15.452,15.452,0,0,1-4.615-5.416,16.3,16.3,0,0,1-1.794-7.019V543.641l13.058,7.943V580.83C84.373,585.088,86.953,587.023,90.333,585.593Z" fill="#00b4d8"/>
  <path id="Path_52" data-name="Path 52" d="M90.333,585.593a14.316,14.316,0,0,1-12.529-.27,15.452,15.452,0,0,1-4.615-5.416,16.3,16.3,0,0,1-1.794-7.019V543.641l13.058,7.943V580.83C84.373,585.088,86.953,587.023,90.333,585.593Z" opacity="0.5"/>
  <path id="Path_53" data-name="Path 53" d="M84.373,551.584V580.83c0,4.662,3.2,6.546,6.97,4.224l378.125-229.28a15.871,15.871,0,0,0,4.911-5.431,16.772,16.772,0,0,0,2.058-7.173V313.789Z" fill="#00b4d8"/>
  <path id="Path_54" data-name="Path 54" d="M84.389,551.516V580.83c0,4.662,3.2,6.546,6.97,4.224l378.125-229.28a15.887,15.887,0,0,0,4.9-5.434,16.8,16.8,0,0,0,2.05-7.17V313.789Z" opacity="0.3"/>
  <path id="Path_55" data-name="Path 55" d="M97.447,514.815V256.321a10.036,10.036,0,0,1,1.215-4.327,9.5,9.5,0,0,1,2.951-3.279L459.133,31.854c2.308-1.4,4.182-.269,4.182,2.524V293.006a10.051,10.051,0,0,1-1.223,4.329,9.509,9.509,0,0,1-2.959,3.277l-357.5,216.811C99.322,518.82,97.447,517.675,97.447,514.815Z" fill="#00b4d8"/>
  <path id="Path_56" data-name="Path 56" d="M97.447,514.815V256.321a10.036,10.036,0,0,1,1.215-4.327,9.5,9.5,0,0,1,2.951-3.279L459.133,31.854c2.308-1.4,4.182-.269,4.182,2.524V293.006a10.051,10.051,0,0,1-1.223,4.329,9.509,9.509,0,0,1-2.959,3.277l-357.5,216.811C99.322,518.82,97.447,517.675,97.447,514.815Z" fill="#263238"/>
  <path id="Path_57" data-name="Path 57" d="M280.4,442a14.865,14.865,0,0,0-4.623,5.118,15.708,15.708,0,0,0-1.914,6.763c0,4.375,2.932,6.159,6.537,3.971a14.862,14.862,0,0,0,4.627-5.125,15.715,15.715,0,0,0,1.91-6.772C286.942,441.58,284.01,439.813,280.4,442Z" fill="#00b4d8"/>
  <path id="Path_58" data-name="Path 58" d="M86.44,244.525a16.139,16.139,0,0,0-2.067,7.219v299.84l-12.978-7.943V243.886a15.527,15.527,0,0,1,2.051-7.236Z" opacity="0.7"/>
  <path id="Path_59" data-name="Path 59" d="M476.373,12.822c-.5-3.769-3.4-5.048-6.9-3.012L91.343,239.09a14.751,14.751,0,0,0-4.919,5.435L73.35,236.6a14.856,14.856,0,0,1,4.935-5.435L456.409,1.9a14.3,14.3,0,0,1,13.507-.269A15.476,15.476,0,0,1,474.3,6.49,16.3,16.3,0,0,1,476.373,12.822Z" opacity="0.3"/>
  <path id="Path_60" data-name="Path 60" d="M496.77,52.368a3.321,3.321,0,0,0-1.816-.375,3.358,3.358,0,0,0-1.741.661L136.43,269.128a11.084,11.084,0,0,0-3.412,3.831,11.717,11.717,0,0,0-1.4,5.037V534.907a5.266,5.266,0,0,0,.476,2.515,4.991,4.991,0,0,0,1.591,1.945c.785.454,4.983,3.012,6.233,3.719a2.686,2.686,0,0,0,2.819-.169l356.7-216.474a11.091,11.091,0,0,0,3.411-3.831,11.717,11.717,0,0,0,1.4-5.037V59.334a3.688,3.688,0,0,0-.3-1.908,3.489,3.489,0,0,0-1.209-1.458C501.945,55.413,497.667,52.923,496.77,52.368Z" fill="#00b4d8"/>
  <path id="Path_61" data-name="Path 61" d="M142.662,272.762l356.8-216.39c2.692-1.683,4.807-.3,4.807,2.962V317.575a11.716,11.716,0,0,1-1.4,5.037,11.084,11.084,0,0,1-3.412,3.831l-356.8,216.474c-2.692,1.683-4.807-1.026-4.807-4.291V281.631a11.751,11.751,0,0,1,1.4-5.035,11.121,11.121,0,0,1,3.408-3.834Z" fill="#fafafa"/>
  <path id="Path_62" data-name="Path 62" d="M501.64,57.348c.946,0,1.09,1.245,1.09,1.986V317.575a9.906,9.906,0,0,1-1.21,4.209,9.383,9.383,0,0,1-2.876,3.2L141.893,541.453a1.547,1.547,0,0,1-.8.269c-.9,0-1.6-1.447-1.6-3.1V281.631a10.026,10.026,0,0,1,1.173-4.219,9.506,9.506,0,0,1,2.832-3.236L500.263,57.82a2.739,2.739,0,0,1,1.377-.471Zm0-1.683a4.338,4.338,0,0,0-2.179.707l-356.8,216.39a11.121,11.121,0,0,0-3.408,3.834,11.751,11.751,0,0,0-1.4,5.035V538.626c0,2.592,1.378,4.779,3.205,4.779a3.084,3.084,0,0,0,1.6-.488L499.445,326.443a11.084,11.084,0,0,0,3.412-3.831,11.717,11.717,0,0,0,1.4-5.037V59.334c0-2.322-1.089-3.668-2.692-3.668Z" fill="#e0e0e0"/>
  <path id="Path_63" data-name="Path 63" d="M133.593,539.367c.529.286,4.326,2.557,5.993,3.567A5.2,5.2,0,0,1,138.2,541a5.471,5.471,0,0,1-.411-2.378V298.408l-6.248-3.837V534.907a5.254,5.254,0,0,0,.469,2.512,5,5,0,0,0,1.581,1.948Z" fill="#f0f0f0"/>
  <path id="Path_64" data-name="Path 64" d="M504.332,59.284c0-3.231-2.2-4.544-4.807-2.911L142.662,272.762a11.121,11.121,0,0,0-3.408,3.834,11.751,11.751,0,0,0-1.4,5.035v16.827L504.332,76.112Z" fill="#00b4d8"/>
  <g id="Group_4" data-name="Group 4" opacity="0.4">
    <path id="Path_65" data-name="Path 65" d="M499.461,56.372l-356.8,216.373a10.33,10.33,0,0,0-3.429,3.82l-6.2-3.786a9.883,9.883,0,0,1,3.4-3.652L493.213,52.653a3.355,3.355,0,0,1,1.738-.67,3.321,3.321,0,0,1,1.819.367c.865.572,4.918,2.979,5.96,3.568a3.368,3.368,0,0,0-1.688-.2,3.432,3.432,0,0,0-1.581.653Z" fill="#fff" opacity="0.4"/>
  </g>
  <path id="Path_66" data-name="Path 66" d="M131.543,294.588V277.912a10.9,10.9,0,0,1,1.49-5.133l6.217,3.77a10.6,10.6,0,0,0-1.458,5.048v16.828Z" opacity="0.15"/>
  <path id="Path_67" data-name="Path 67" d="M429.092,253.006,215.4,382.581a8.1,8.1,0,0,0-2.525,2.79,8.572,8.572,0,0,0-1.048,3.689v64.35a8.564,8.564,0,0,0,1.048,3.688,8.1,8.1,0,0,0,2.525,2.79l6.233,3.77a7.579,7.579,0,0,0,7.146,0L442.438,334.083a8.145,8.145,0,0,0,2.526-2.8,8.619,8.619,0,0,0,1.047-3.7V263.221a8.572,8.572,0,0,0-1.048-3.689,8.1,8.1,0,0,0-2.525-2.79l-6.248-3.769a7.532,7.532,0,0,0-7.1.033Z" fill="#ba68c8"/>
  <path id="Path_68" data-name="Path 68" d="M446.011,262.649c-.256-1.936-1.746-2.642-3.541-1.549L228.781,390.675a7.419,7.419,0,0,0-2.515,2.794l-13.379-8.111a7.537,7.537,0,0,1,2.5-2.76l213.7-129.575a7.533,7.533,0,0,1,7.13,0l6.249,3.77a8.233,8.233,0,0,1,2.372,2.526A8.694,8.694,0,0,1,446.011,262.649Z" fill="#fff" opacity="0.5"/>
  <path id="Path_69" data-name="Path 69" d="M228.173,463.978a7.67,7.67,0,0,1-6.521-.3L215.4,459.9a8.141,8.141,0,0,1-2.522-2.792,8.591,8.591,0,0,1-1.051-3.687V389.077a8.07,8.07,0,0,1,1.058-3.719l13.378,8.111a7.813,7.813,0,0,0-1.057,3.685v64.367C225.209,463.658,226.49,464.651,228.173,463.978Z" fill="#263238"/>
  <path id="Path_70" data-name="Path 70" d="M228.782,390.675,442.47,261.1c1.971-1.194,3.573-.235,3.573,2.154v64.367a8.615,8.615,0,0,1-1.047,3.7,8.139,8.139,0,0,1-2.526,2.8L228.814,463.691c-1.971,1.195-3.573.219-3.573-2.17v-64.35a8.6,8.6,0,0,1,1.033-3.691A8.141,8.141,0,0,1,228.782,390.675Z" fill="#00b4d8"/>
  <path id="Path_71" data-name="Path 71" d="M372.437,287.369,215.419,382.6a7.535,7.535,0,0,0-2.5,2.76l13.378,8.111a7.413,7.413,0,0,1,2.516-2.794l157.018-95.212Z" fill="#455a64"/>
  <path id="Path_72" data-name="Path 72" d="M385.8,295.463,228.782,390.675a8.139,8.139,0,0,0-2.526,2.8,8.611,8.611,0,0,0-1.047,3.7V461.5c0,2.389,1.6,3.365,3.573,2.171L385.8,368.462Z" fill="#37474f"/>
  <path id="Path_73" data-name="Path 73" d="M264.992,382.833l81.024-49.12c3.349-2.036,6.073-.589,6.073,3.231a14.169,14.169,0,0,1-1.837,6.065A13.392,13.392,0,0,1,346,347.545l-81.008,49.138c-3.349,2.036-6.089.589-6.089-3.231a14.233,14.233,0,0,1,1.839-6.072,13.448,13.448,0,0,1,4.25-4.547Z" fill="#00b4d8"/>
  <path id="Path_74" data-name="Path 74" d="M281.591,399.106a.168.168,0,0,1,.054-.042.153.153,0,0,1,.132,0,.158.158,0,0,1,.054.042.64.64,0,0,1,.1.387v9.575a16.777,16.777,0,0,1-.224,2.76,11.054,11.054,0,0,1-.673,2.423,8.7,8.7,0,0,1-1.121,1.986,5.967,5.967,0,0,1-1.6,1.4,2.861,2.861,0,0,1-1.6.5,1.546,1.546,0,0,1-.622-.189,1.616,1.616,0,0,1-.5-.433,3.883,3.883,0,0,1-.673-1.683,12.21,12.21,0,0,1-.209-2.474v-9.592a1.276,1.276,0,0,1,.1-.488.6.6,0,0,1,.24-.336l1.009-.623a.173.173,0,0,1,.241,0,.612.612,0,0,1,.1.387v9.458a6.649,6.649,0,0,0,.144,1.548,1.724,1.724,0,0,0,.384.875.739.739,0,0,0,.267.208.678.678,0,0,0,.326.061,1.555,1.555,0,0,0,.769-.269,3.489,3.489,0,0,0,.769-.657,3.963,3.963,0,0,0,.609-1.009,6.6,6.6,0,0,0,.4-1.346,9.393,9.393,0,0,0,.128-1.683v-9.474a1.279,1.279,0,0,1,.112-.488.6.6,0,0,1,.241-.337Z" fill="#fafafa"/>
  <path id="Path_75" data-name="Path 75" d="M287.872,408.159a.629.629,0,0,0-.081-.353.353.353,0,0,0-.138-.1.348.348,0,0,0-.166-.02,2.1,2.1,0,0,0-.593,0l-.929.185a1.788,1.788,0,0,1-.913,0,1.108,1.108,0,0,1-.577-.454,2.493,2.493,0,0,1-.3-.892,8,8,0,0,1,0-2.726,7.9,7.9,0,0,1,.513-1.5,7.379,7.379,0,0,1,.8-1.346,4.119,4.119,0,0,1,1.09-.993,2.692,2.692,0,0,1,1.1-.4,1.292,1.292,0,0,1,.817.185,1.381,1.381,0,0,1,.529.64,2.809,2.809,0,0,1,.209.993.86.86,0,0,1-.1.488.6.6,0,0,1-.24.336l-.961.589a.275.275,0,0,1-.289,0l-.208-.168a.51.51,0,0,0-.288-.118,1.27,1.27,0,0,0-.577.219,2.491,2.491,0,0,0-.657.606,1.506,1.506,0,0,0-.288.925,1.093,1.093,0,0,0,0,.387.366.366,0,0,0,.118.117.353.353,0,0,0,.154.052,1.566,1.566,0,0,0,.529,0l.9-.169a1.469,1.469,0,0,1,1.6.438,3.674,3.674,0,0,1,.465,2.07,6.157,6.157,0,0,1-.193,1.481,7.409,7.409,0,0,1-.544,1.514,6.452,6.452,0,0,1-.882,1.38,4.594,4.594,0,0,1-1.169,1.027,2.534,2.534,0,0,1-1.17.42,1.394,1.394,0,0,1-.849-.252,1.548,1.548,0,0,1-.545-.724,2.636,2.636,0,0,1-.192-1.01.942.942,0,0,1,.1-.5.608.608,0,0,1,.24-.337l.962-.589c.128,0,.224-.084.288,0l.209.236a.479.479,0,0,0,.152.12.469.469,0,0,0,.184.048,1,1,0,0,0,.625-.219,3.028,3.028,0,0,0,.769-.656,2.086,2.086,0,0,0,.272-.454,1.036,1.036,0,0,0,.225-.472Z" fill="#fafafa"/>
  <path id="Path_76" data-name="Path 76" d="M291.14,403.6a15.7,15.7,0,0,1,.209-2.608,12.974,12.974,0,0,1,.625-2.373,8.2,8.2,0,0,1,.961-1.935,4.2,4.2,0,0,1,1.282-1.262,1.676,1.676,0,0,1,1.265-.286,1.6,1.6,0,0,1,.962.69,4.321,4.321,0,0,1,.625,1.514,9.862,9.862,0,0,1,.224,2.154v1.043a1.058,1.058,0,0,1-.112.5.6.6,0,0,1-.241.337l-4.165,2.541a2.753,2.753,0,0,0,.112.875,1.106,1.106,0,0,0,.32.488.655.655,0,0,0,.465.151,1.271,1.271,0,0,0,.545-.2,2.356,2.356,0,0,0,.641-.538,3.1,3.1,0,0,0,.416-.64c.069-.133.143-.262.224-.387a1.04,1.04,0,0,1,.241-.218l.993-.606a.185.185,0,0,1,.12-.044.188.188,0,0,1,.121.044.483.483,0,0,1,.089.182.506.506,0,0,1,.007.205,3.407,3.407,0,0,1-.193.959,7.464,7.464,0,0,1-.544,1.346,7.728,7.728,0,0,1-.9,1.38,4.871,4.871,0,0,1-1.217,1.094,1.869,1.869,0,0,1-1.282.32,1.6,1.6,0,0,1-.961-.707,4.585,4.585,0,0,1-.625-1.683,11.985,11.985,0,0,1-.209-2.339Zm3.077-5.368a1.9,1.9,0,0,0-.625.572,3.263,3.263,0,0,0-.433.774,5.941,5.941,0,0,0-.272.858,5.629,5.629,0,0,0-.112.808l2.82-1.683a5.183,5.183,0,0,0-.1-.69,1.136,1.136,0,0,0-.224-.555.62.62,0,0,0-.181-.18.582.582,0,0,0-.235-.089.928.928,0,0,0-.641.185Z" fill="#fafafa"/>
  <path id="Path_77" data-name="Path 77" d="M302.324,393.536a2.669,2.669,0,0,0-1.09,1.279,6.063,6.063,0,0,0-.336,2.221v6.075a1.3,1.3,0,0,1-.1.505.6.6,0,0,1-.241.336l-.945.573a.157.157,0,0,1-.054.042.153.153,0,0,1-.132,0,.157.157,0,0,1-.054-.042.642.642,0,0,1-.1-.387V393.25a1.381,1.381,0,0,1,.1-.505.688.688,0,0,1,.24-.336l.945-.573a.173.173,0,0,1,.241,0,.564.564,0,0,1,.1.371v.538a7.037,7.037,0,0,1,.7-1.279,2.976,2.976,0,0,1,.961-.892l.577-.353a.155.155,0,0,1,.224,0,.636.636,0,0,1,.112.387v1.531a1.268,1.268,0,0,1-.112.505.684.684,0,0,1-.224.337Z" fill="#fafafa"/>
  <path id="Path_78" data-name="Path 78" d="M314.276,392.728a.161.161,0,0,1,.055-.042.15.15,0,0,1,.131,0,.161.161,0,0,1,.055.042.656.656,0,0,1,.1.387V394.8a1.424,1.424,0,0,1-.1.505.877.877,0,0,1-.241.32l-5.479,3.365a.17.17,0,0,1-.241,0,.6.6,0,0,1-.1-.37V383.473a1.424,1.424,0,0,1,.1-.505.644.644,0,0,1,.241-.32l1.009-.622a.173.173,0,0,1,.12-.05.169.169,0,0,1,.12.05.6.6,0,0,1,.1.37V395.2Z" fill="#fafafa"/>
  <path id="Path_79" data-name="Path 79" d="M319.2,380.276a1.854,1.854,0,0,1,1.234-.354,1.45,1.45,0,0,1,.977.505,3.291,3.291,0,0,1,.641,1.245,7.535,7.535,0,0,1,.288,1.835v2.372a12.366,12.366,0,0,1-.288,2.171,10.881,10.881,0,0,1-.641,2.019,7.6,7.6,0,0,1-.977,1.683,4.512,4.512,0,0,1-1.234,1.161,2.022,2.022,0,0,1-1.25.354,1.433,1.433,0,0,1-.961-.505,2.894,2.894,0,0,1-.641-1.228,7.587,7.587,0,0,1-.289-1.835v-2.356a11.167,11.167,0,0,1,.273-2.187,11.488,11.488,0,0,1,.657-2.036,8.181,8.181,0,0,1,.961-1.683,4.319,4.319,0,0,1,1.25-1.161Zm1.506,4.341a3.528,3.528,0,0,0-.176-1.094,1.045,1.045,0,0,0-.353-.538.664.664,0,0,0-.464-.118,1.351,1.351,0,0,0-.513.219,2.263,2.263,0,0,0-.513.4,3,3,0,0,0-.465.673,3.808,3.808,0,0,0-.352.976,6.994,6.994,0,0,0-.192,1.312v2.1a4.146,4.146,0,0,0,.192,1.094,1.024,1.024,0,0,0,.352.538.587.587,0,0,0,.223.1.564.564,0,0,0,.242,0,1.394,1.394,0,0,0,.513-.2,2.654,2.654,0,0,0,.513-.4,3.659,3.659,0,0,0,.464-.673,4.514,4.514,0,0,0,.353-.976,6.362,6.362,0,0,0,.176-1.312,3.7,3.7,0,0,0,0-.471v-1.178A3.836,3.836,0,0,0,320.7,384.617Z" fill="#fafafa"/>
  <path id="Path_80" data-name="Path 80" d="M327.238,390.12a2.319,2.319,0,0,0,.545-.488,4.146,4.146,0,0,0,.5-.774,5.323,5.323,0,0,0,.368-1.06,5.255,5.255,0,0,0,.144-1.262v-.859a1.943,1.943,0,0,1-.272.606,5.124,5.124,0,0,1-.384.707,6.815,6.815,0,0,1-.545.673,2.844,2.844,0,0,1-.689.555,1.447,1.447,0,0,1-.546.241,1.407,1.407,0,0,1-.592-.005,1.612,1.612,0,0,1-.865-.69,4.714,4.714,0,0,1-.561-1.414,10.211,10.211,0,0,1-.224-1.935v-1.632a14.924,14.924,0,0,1,.224-2.2,13.791,13.791,0,0,1,.561-2.1,8.6,8.6,0,0,1,.865-1.683,3.741,3.741,0,0,1,1.138-1.144,2.188,2.188,0,0,1,.689-.286,1.427,1.427,0,0,1,.545,0,.978.978,0,0,1,.384.219,1.448,1.448,0,0,1,.272.286v-.539a1.407,1.407,0,0,1,.1-.505.63.63,0,0,1,.24-.319l.945-.589a.17.17,0,0,1,.241,0,.65.65,0,0,1,.112.387V385.24a12.075,12.075,0,0,1-.849,4.779,6.035,6.035,0,0,1-2.34,2.861,2.384,2.384,0,0,1-1.185.387,1.541,1.541,0,0,1-.946-.253,2.25,2.25,0,0,1-.64-.807,3.491,3.491,0,0,1-.257-1.212.956.956,0,0,1,.1-.505.6.6,0,0,1,.241-.336l.849-.505a.207.207,0,0,1,.069-.052.2.2,0,0,1,.166,0,.207.207,0,0,1,.069.052,1.694,1.694,0,0,1,.209.286.759.759,0,0,0,.448.37C326.549,390.457,326.838,390.288,327.238,390.12Zm-1.506-8.162v1.313a2.972,2.972,0,0,0,.513,1.885.757.757,0,0,0,1.025,0,2.872,2.872,0,0,0,1.042-1.313,6.326,6.326,0,0,0,.48-2.221v-1.784a2.665,2.665,0,0,0-.48-1.683.744.744,0,0,0-1.042,0,2.886,2.886,0,0,0-1.025,1.3,6.737,6.737,0,0,0-.513,2.507Z" fill="#fafafa"/>
  <path id="Path_81" data-name="Path 81" d="M334.16,367.015a.173.173,0,0,1,.112-.042.171.171,0,0,1,.112.042.563.563,0,0,1,.113.387v1.835a1.15,1.15,0,0,1-.113.5.715.715,0,0,1-.224.32l-1.073.656a.15.15,0,0,1-.055.042.148.148,0,0,1-.066.015.157.157,0,0,1-.12-.057.485.485,0,0,1-.092-.172.509.509,0,0,1-.02-.2v-1.834a1.157,1.157,0,0,1,.112-.505.638.638,0,0,1,.241-.32Zm.272,15.8a1.253,1.253,0,0,1-.1.488.821.821,0,0,1-.24.336l-.961.572a.154.154,0,0,1-.05.042.138.138,0,0,1-.125,0,.155.155,0,0,1-.05-.042.554.554,0,0,1-.112-.387V372.939a1.164,1.164,0,0,1,.112-.505.8.8,0,0,1,.225-.337l.961-.572a.173.173,0,0,1,.12-.05.17.17,0,0,1,.12.05.588.588,0,0,1,.1.37Z" fill="#fafafa"/>
  <path id="Path_82" data-name="Path 82" d="M342.86,377.684a1.4,1.4,0,0,1-.1.505.642.642,0,0,1-.24.32l-.962.589a.155.155,0,0,1-.224,0,.557.557,0,0,1-.112-.387v-5.924a4.3,4.3,0,0,0-.353-2.036c-.224-.421-.577-.488-1.073-.185a2.752,2.752,0,0,0-1.042,1.464,7.409,7.409,0,0,0-.384,2.474v5.94a1.425,1.425,0,0,1-.1.505.607.607,0,0,1-.241.336l-.945.572a.171.171,0,0,1-.054.043.162.162,0,0,1-.132,0,.161.161,0,0,1-.054-.043.548.548,0,0,1-.1-.37V370.6a1.261,1.261,0,0,1,.1-.505.6.6,0,0,1,.24-.337l.945-.572a.161.161,0,0,1,.055-.042.15.15,0,0,1,.131,0,.161.161,0,0,1,.055.042.653.653,0,0,1,.1.387v.522a8.8,8.8,0,0,1,.769-1.464,3.088,3.088,0,0,1,1.041-1.027,1.684,1.684,0,0,1,1.266-.336,1.279,1.279,0,0,1,.487.251,1.354,1.354,0,0,1,.346.439,4.41,4.41,0,0,1,.449,1.464,16.028,16.028,0,0,1,.128,2.019Z" fill="#fafafa"/>
  <path id="Path_83" data-name="Path 83" d="M423.676,328.7l-15.558,9.424,2.42-22.92c-1.875-1.043-3.06-3.584-3.06-7.236,0-6.512,3.781-14.068,8.427-16.828s8.412.169,8.412,6.731a23.146,23.146,0,0,1-3.044,10.939Z" fill="#455a64"/>
  <path id="Path_84" data-name="Path 84" d="M423.692,328.7l-13.7-8.3-1.874,17.737Z" fill="#37474f"/>
  <path id="Path_85" data-name="Path 85" d="M415.873,291.088A19.207,19.207,0,0,0,408.7,301.1l12.546,7.607a23.145,23.145,0,0,0,3.044-10.938C424.317,291.256,420.552,288.278,415.873,291.088Z" fill="#37474f"/>
  <path id="Path_86" data-name="Path 86" d="M340.248,214.773c-5.335-3.231-12.689-2.776-20.829,2.154C303.173,226.788,290,250.734,290,270.44c0,9.895,3.333,16.828,8.684,20.025l10.367,6.327c5.319,3.231,12.673,2.76,20.829-2.17,16.246-9.845,29.417-33.808,29.417-53.513,0-9.844-3.3-16.828-8.62-19.975" fill="#ba68c8"/>
  <path id="Path_87" data-name="Path 87" d="M329.866,223.271c-16.247,9.862-29.417,33.824-29.417,53.513s13.17,27.7,29.417,17.838,29.433-33.808,29.417-53.513S346.1,213.427,329.866,223.271Z" fill="#00b4d8"/>
  <path id="Path_88" data-name="Path 88" d="M346.1,266.99v2.255a48.73,48.73,0,0,1-16.231,17.871c-6.329,3.82-12.049,4.241-16.246,1.8v-4.645a31.408,31.408,0,0,1,3.831-13.729,29.69,29.69,0,0,1,9.4-10.351l4.278-2.592c3.781-2.288,7.466-2.591,10.35-.824S346.1,262.262,346.1,266.99Z" fill="#ba68c8"/>
  <path id="Path_89" data-name="Path 89" d="M340.248,214.773l10.415,6.361c-5.32-3.248-12.674-2.793-20.829,2.137-10.639,6.462-19.964,18.965-25.123,32.36l-10.43-6.344c5.175-13.462,14.42-25.9,25.122-32.36C327.575,212.014,334.929,211.542,340.248,214.773Z" fill="#fff" opacity="0.4"/>
  <path id="Path_90" data-name="Path 90" d="M308.685,296.54l-9.982-6.075c-5.352-3.2-8.684-10.1-8.684-20.025l10.43,6.361C300.513,286.393,303.59,293.225,308.685,296.54Z" opacity="0.2"/>
  <path id="Path_91" data-name="Path 91" d="M294.313,249.287l10.43,6.344a59.9,59.9,0,0,0-4.23,21.153l-10.43-6.361A60.11,60.11,0,0,1,294.313,249.287Z" opacity="0.1"/>
  <path id="Path_92" data-name="Path 92" d="M326.149,256.54a5.39,5.39,0,0,1-2.836-.774,7.2,7.2,0,0,1-2.413-2.923,7.612,7.612,0,0,1-.647-3.808,19.937,19.937,0,0,1,2.429-8.712,18.862,18.862,0,0,1,5.966-6.568h0a6.118,6.118,0,0,1,3.452-1.423,6.039,6.039,0,0,1,3.614.87,6.48,6.48,0,0,1,2.517,2.86,6.885,6.885,0,0,1,.543,3.852,19.974,19.974,0,0,1-2.433,8.71,18.9,18.9,0,0,1-5.962,6.57,8.187,8.187,0,0,1-4.23,1.346Z" fill="#fff"/>
  <path id="Path_93" data-name="Path 93" d="M341.482,256.759c-2.884-1.767-6.569-1.464-10.35.824l-4.278,2.592a29.708,29.708,0,0,0-9.407,10.359,31.41,31.41,0,0,0-3.827,13.738v4.662c4.2,2.44,9.917,2.019,16.246-1.8A48.73,48.73,0,0,0,346.1,269.262v-2.255C346.1,262.262,344.43,258.543,341.482,256.759Z" fill="#fff"/>
  <path id="Path_94" data-name="Path 94" d="M582.7,85.7l5.095,2.053V75.977c0-9.356,7.1-11.594,14.8-6.916,7.723,4.678,13.972,16.037,13.972,25.393v1.683a7.107,7.107,0,0,1,3.318-.249,7.255,7.255,0,0,1,3.091,1.293,22.9,22.9,0,0,1,7.107,7.883,24.212,24.212,0,0,1,2.939,10.409v.774l7.114,4.308a15.1,15.1,0,0,1,4.676,5.186,15.971,15.971,0,0,1,1.941,6.846c0,4.442-2.964,6.243-6.617,4.022L582.7,101.757a15.016,15.016,0,0,1-4.676-5.184,15.864,15.864,0,0,1-1.925-6.848C576.1,85.3,579.028,83.5,582.7,85.7Z" fill="#e6e6e6"/>
  <path id="Path_95" data-name="Path 95" d="M650.936,76.381l9.244,5.6a11.64,11.64,0,0,1-.08-1.279V77.9c0-5.048,3.333-7.034,7.467-4.527a14.759,14.759,0,0,1,4.454,4.493c.673-6.294,5.383-8.633,11.087-5.183a25.512,25.512,0,0,1,7.923,8.765,26.979,26.979,0,0,1,3.293,11.58V97.23a11.581,11.581,0,0,1-.945,4.881l7.69,4.644a9.487,9.487,0,0,1,2.907,3.266,10.03,10.03,0,0,1,1.2,4.29c0,2.776-1.859,3.9-4.15,2.524l-50.085-30.29A9.438,9.438,0,0,1,648,83.282a9.975,9.975,0,0,1-1.21-4.309C646.786,76.128,648.644,75,650.936,76.381Z" fill="#e6e6e6"/>
  <path id="Path_96" data-name="Path 96" d="M615.142,331.778c-6.73,11.947-13.2,22.33-17.753,27.311-8.636,4.207-28.92,10.7-36.851,11.78a5.631,5.631,0,0,1-3.974-.976c-3.124-2.154-5.543-2.508-8.828-3.7-2.579-.926-3.669-2.222-4.15-1.683a3.183,3.183,0,0,0-.7,2.2,3.141,3.141,0,0,0,.968,2.087,21.75,21.75,0,0,0,4.069,3.2,22.9,22.9,0,0,1-10.734.2c-6.874-1.9-10.11,1.565-5.464,9.407,1.6,2.793,8.2,7.287,21.47,6.075A114.6,114.6,0,0,0,567.315,386c12.722-2.861,26.87-5.62,35.57-8.414a22.44,22.44,0,0,0,8.459-6.159c14.629-17.518,19.483-30,25.892-41.346l-.544-18.511C626.309,311.2,620.766,321.782,615.142,331.778Z" fill="#ffa8a7"/>
  <path id="Path_97" data-name="Path 97" d="M638.47,311.2a15.962,15.962,0,0,0-8.875,1.238,16.857,16.857,0,0,0-6.987,5.88c-7.114,9.575-19.707,32.562-19.707,32.562s4.118,11.527,15.237,13.463L636,339S644.463,321.395,638.47,311.2Z" fill="#455a64"/>
  <path id="Path_98" data-name="Path 98" d="M677.1,569.572H665.452v21.809H677.1Z" fill="#ffa8a7"/>
  <path id="Path_99" data-name="Path 99" d="M636.724,568.412l-11.632.437-.593-23.088,12.225-.437Z" fill="#ffa8a7"/>
  <path id="Path_100" data-name="Path 100" d="M678.734,380.78c0,12.15-1.7,110.038-1.7,110.038.256,3.5,3.2,9.962,2.611,23.408-.881,18.258-2.05,66.251-2.05,66.251a14.169,14.169,0,0,1-12.962.269s-9.454-67.311-11.536-85.334c-1.827-15.8-6.505-68.1-6.505-68.1l-6.3,61.825a79.835,79.835,0,0,1,1.442,20.194c-.545,8.414-4.294,51.964-4.294,51.964a14.894,14.894,0,0,1-6.6,2.192A14.738,14.738,0,0,1,624,562.421s-6.633-65.629-6.761-73.336c-.16-8.751,3.877-108.406,3.877-108.406Z" fill="#37474f"/>
  <path id="Path_101" data-name="Path 101" d="M665.452,585.088V583.27c-1.122.522-3.7,11.326-8.332,15.936-3.669,3.669-8.668,7.893-9.95,11.982s6.97,6.6,10.415,5.94c3.973-.774,10.895-3.853,12.625-6.731s2.548-7.051,3.958-9.138,4.662-4.408,5.415-6.832a16.959,16.959,0,0,0-.657-6.731c-.544-2.255-1.121-4.728-1.826-4.51v1.38a8.769,8.769,0,0,1-5.832,2.154C669.569,586.872,665.436,586.5,665.452,585.088Z" fill="#263238"/>
  <path id="Path_102" data-name="Path 102" d="M624.964,564.911c-.609,0-1.106.959-2.436,2.541a25.769,25.769,0,0,1-6.841,5.385c-4.358,2.39-12.818,6.058-16.68,7.96-2.4,1.178-2.291,4.341.193,6.142s8.459,3.1,15.637,1.346c3.91-.959,9.005-4.914,12.241-4.695s9.245.152,11.633-1.683,1.426-5.637.753-8.918c-.737-3.6-1.6-9.205-2.74-8.953V565.3c-1.394,2.323-8.62,3.265-11.7,1.565Z" fill="#263238"/>
  <path id="Path_103" data-name="Path 103" d="M646.594,427.31a42.468,42.468,0,0,1-16.215-10.181s3.2,6.411,12.433,12.385l-1.986,55.212Z" fill="#263238"/>
  <path id="Path_104" data-name="Path 104" d="M672.229,312.981s9.614,2.322,8.925,20.564l-2,29.028v43.584c-8.556,10.2-46.465,9.457-59.523-.808,0,0,1.474-51.577,2.355-71.434.625-14.1,3.718-21.2,16.92-22.752l16.23.741Z" fill="#00b4d8"/>
  <path id="Path_105" data-name="Path 105" d="M659.988,275.084a19.347,19.347,0,0,1-1.193,7.149,18.652,18.652,0,0,1-3.718,6.117,17.658,17.658,0,0,1-5.672,4.146,16.925,16.925,0,0,1-6.753,1.537c-9.613,0-15.253-8.717-17.336-18.949-3.845-18.729,7.755-18.965,17.336-18.965a17.323,17.323,0,0,1,12.406,5.713,19.119,19.119,0,0,1,4.93,13.252Z" fill="#263238"/>
  <path id="Path_106" data-name="Path 106" d="M668.832,282.741S666.173,296.4,665.1,298.66a5.742,5.742,0,0,1-3.2,2.878l.192-9.609Z" fill="#263238"/>
  <path id="Path_107" data-name="Path 107" d="M665.484,263.17s1.906-.505,3.941,2.827c1.731,2.844,2.131,9.239-.593,16.828l-5.015.64Z" fill="#263238"/>
  <path id="Path_108" data-name="Path 108" d="M667.327,265.947l6.152.118a3.192,3.192,0,0,0-.119-1.241,3.1,3.1,0,0,0-.582-1.086,2.927,2.927,0,0,0-.948-.75,2.791,2.791,0,0,0-1.155-.289,3.325,3.325,0,0,0-2.266.951A3.652,3.652,0,0,0,667.327,265.947Z" fill="#263238"/>
  <path id="Path_109" data-name="Path 109" d="M668.079,264.416l4.55-4.594a2.955,2.955,0,0,0-.949-.776,2.8,2.8,0,0,0-2.354-.1,2.935,2.935,0,0,0-1.007.691,3.667,3.667,0,0,0-.24,4.78Z" fill="#263238"/>
  <path id="Path_110" data-name="Path 110" d="M662.311,283.381c1.01.656,2.436-1.448,3.686-2.878s5.127-2.743,7.145,1.9-1.426,9.238-4.31,10.753c-5.175,2.692-6.809-1.229-6.809-1.229l-.433,21.641c-7.274,11.779-23.777,11.409-17.832-.572v-6.58a31.391,31.391,0,0,1-7.4.4c-4.037-.673-6.569-4.157-7.8-8.936-1.955-7.673-2.708-13.866-1.042-28.961,1.827-16.525,19.419-16.71,28.84-10.1S662.311,283.381,662.311,283.381Z" fill="#ffa8a7"/>
  <path id="Path_111" data-name="Path 111" d="M640.393,266.351c4.2-.438,8.348-1.346,12.561-1.683a7.776,7.776,0,0,1,2.724.135c3.205.925,2.82,4.863,3.333,7.606.881,4.745,1.6,12.772,3.3,12.806.513,0,2.436-3.484,3.685-4.729a7.19,7.19,0,0,0,1.122-3.618c.32-1.952.481-3.954.625-5.94.128-1.683.288-3.366.288-5.048a24.839,24.839,0,0,0-.432-5.671,10.072,10.072,0,0,0-2.243-4.241l-.321-.37a21.244,21.244,0,0,0-7.514-5.318,43.553,43.553,0,0,0-12.722-2.911,119.169,119.169,0,0,1-12.962-1.683,1.288,1.288,0,0,0-.753,0,1.21,1.21,0,0,0-.427.423,1.287,1.287,0,0,0-.182.587,5.879,5.879,0,0,0,.317,3.1,5.582,5.582,0,0,0,1.846,2.448c-2.9.236-6.233-1.346-9.02-2.154a1.748,1.748,0,0,0-1.426,0,1.481,1.481,0,0,0-.561.858,5.612,5.612,0,0,0-.08,2.423,14.348,14.348,0,0,0,2.5,6.732,15.6,15.6,0,0,0,8.652,5.94,24.077,24.077,0,0,0,7.691.3Z" fill="#263238"/>
  <path id="Path_112" data-name="Path 112" d="M643.774,306.418s9-1.986,12.145-3.82a10.917,10.917,0,0,0,4.358-4.712,16.09,16.09,0,0,1-2.484,5.553c-2.291,3.231-14.019,5.587-14.019,5.587Z" fill="#f28f8f"/>
  <path id="Path_113" data-name="Path 113" d="M645.937,280.907a2.023,2.023,0,0,0,.5,1.406,1.839,1.839,0,0,0,1.3.63,1.875,1.875,0,0,0,1.128-.262,2.021,2.021,0,0,0,.79-.885,2.147,2.147,0,0,0,.176-1.2,2.105,2.105,0,0,0-.5-1.094,1.941,1.941,0,0,0-1-.607,1.866,1.866,0,0,0-1.152.092,1.977,1.977,0,0,0-.9.759,2.125,2.125,0,0,0-.336,1.161Z" fill="#263238"/>
  <path id="Path_114" data-name="Path 114" d="M648.821,272.745l3.861,2.339a2.687,2.687,0,0,0,.178-1.867,2.561,2.561,0,0,0-1.075-1.5,2.045,2.045,0,0,0-.832-.274,2.025,2.025,0,0,0-.866.1,2.089,2.089,0,0,0-.753.46,2.212,2.212,0,0,0-.513.739Z" fill="#263238"/>
  <path id="Path_115" data-name="Path 115" d="M644.575,294.554l-4.118,1.683a2.308,2.308,0,0,0,.411.81,2.181,2.181,0,0,0,.685.57,2.053,2.053,0,0,0,1.708.1,2.471,2.471,0,0,0,1.252-1.309,2.646,2.646,0,0,0,.062-1.855Z" fill="#f28f8f"/>
  <path id="Path_116" data-name="Path 116" d="M629.37,274.479l3.525-2.962a2.138,2.138,0,0,0-.611-.648,2.025,2.025,0,0,0-.809-.33,1.98,1.98,0,0,0-.866.045,2.038,2.038,0,0,0-.775.411,2.685,2.685,0,0,0-.864,1.649,2.749,2.749,0,0,0,.4,1.835Z" fill="#263238"/>
  <path id="Path_117" data-name="Path 117" d="M630.924,280.352a1.962,1.962,0,0,0,.372,1.012,1.817,1.817,0,0,0,.839.633,1.732,1.732,0,0,0,1.032.048,1.8,1.8,0,0,0,.89-.553,1.939,1.939,0,0,0,.456-.973,1.981,1.981,0,0,0-.125-1.077,1.878,1.878,0,0,0-.665-.831,1.746,1.746,0,0,0-.989-.312,1.794,1.794,0,0,0-.717.176,1.905,1.905,0,0,0-.6.453,1.983,1.983,0,0,0-.384.66,2.041,2.041,0,0,0-.113.764Z" fill="#263238"/>
  <path id="Path_118" data-name="Path 118" d="M640.585,278.77l-.208,11.964-6.473-1.548Z" fill="#f28f8f"/>
  <path id="Path_119" data-name="Path 119" d="M486.868,378.98l10.046-6.092,3.973-5.065-10.03,6.092Z" fill="#00b4d8"/>
  <path id="Path_120" data-name="Path 120" d="M486.868,378.98l10.046-6.092,3.973-5.065-10.03,6.092Z" opacity="0.4"/>
  <path id="Path_121" data-name="Path 121" d="M514.186,395.538l10.046-6.091,8.379-7.791-10.03,6.074Z" fill="#00b4d8"/>
  <path id="Path_122" data-name="Path 122" d="M514.186,395.538l10.046-6.091,8.379-7.791-10.03,6.074Z" opacity="0.4"/>
  <path id="Path_123" data-name="Path 123" d="M599.52,416.556a23.044,23.044,0,0,1,4.15,11.477,23.29,23.29,0,0,1-4.15-11.477Zm23.344.32c-3.38-24.148-15.733-48.027-30.442-56.962-7.066-4.291-13.6-4.443-18.842-1.229l-9.453,5.722-.529.336a12.1,12.1,0,0,0-1.217.808,16.666,16.666,0,0,0-2.18,1.885l-.32.32c-.288.3-.593.656-.865.992s-.689.859-1.01,1.313a25.137,25.137,0,0,0-1.842,2.962,17.708,17.708,0,0,0-.817,1.683l-82.563-50.047-10.03,6.075v6.731l.849.505.8.488V339.8l-1.6.993v3.9l12.129,26.925,11.985,7.287,3.989-5.049,10.575,6.647,6.072,10.921,6.7,4.056,8.379-7.808,10.287,6.243,3.46,14.994,17.288,10.5a102.6,102.6,0,0,0,3.205,11.258c.112.37.256.757.4,1.178,5.736,15.818,14.853,29.365,25.139,35.608a25.333,25.333,0,0,0,3.862,1.969,19.445,19.445,0,0,0,2.163.757q.961.27,1.922.454a16.24,16.24,0,0,0,6.121,0l.833-.218a7.3,7.3,0,0,0,1.17-.354l.9-.37a5.211,5.211,0,0,0,.913-.454,8.69,8.69,0,0,0,.865-.455l.417-.269a.663.663,0,0,0,.208-.118c2.291-1.38,7.931-4.813,9.469-5.721,7.627-4.645,12.562-16.391,12.562-33a90.815,90.815,0,0,0-.946-12.806Z" fill="#00b4d8"/>
  <path id="Path_124" data-name="Path 124" d="M596.588,436.935c-3.973-2.406-7.178-9.541-7.178-15.936s3.205-9.642,7.178-7.253,7.162,9.542,7.162,15.953S600.546,439.342,596.588,436.935Zm16.231-13.984c-3.365-24.131-15.718-48.027-30.443-56.945-6.825-4.14-13.138-4.443-18.265-1.6l-.529.336a12.111,12.111,0,0,0-1.217.808,16.6,16.6,0,0,0-2.179,1.885l-.321.32c-.288.3-.593.656-.865.992s-.689.859-1.009,1.313a25.009,25.009,0,0,0-1.843,2.962,17.693,17.693,0,0,0-.817,1.683,42.415,42.415,0,0,0-3.205,10.248l-89.388-54.22v6.731l.85.505.8.488V339.8l-1.6.992v3.9l12.129,26.925,11.985,7.287,3.989-5.049,10.575,6.647,6.073,10.921,6.7,4.056,8.379-7.808,10.287,6.243,3.461,14.994,17.3,10.5a102.38,102.38,0,0,0,3.2,11.258c.112.37.256.757.4,1.178,5.736,15.818,14.852,29.365,25.138,35.608a25.333,25.333,0,0,0,3.862,1.969,19.445,19.445,0,0,0,2.163.757q.961.27,1.922.454a16.24,16.24,0,0,0,6.121,0l.833-.218a7.3,7.3,0,0,0,1.17-.354l.9-.37a5.11,5.11,0,0,0,.913-.454,8.822,8.822,0,0,0,.866-.455l.416-.269a.652.652,0,0,0,.208-.118c7.306-4.846,12-16.424,12-32.629a93.856,93.856,0,0,0-.961-12.823Z" fill="#00b4d8"/>
  <path id="Path_125" data-name="Path 125" d="M603.75,429.682c0,6.412-3.205,9.66-7.162,7.253S589.41,427.411,589.41,421s3.2-9.659,7.178-7.253a10.446,10.446,0,0,1,2.932,2.827,23.192,23.192,0,0,0,4.15,11.477,14.111,14.111,0,0,1,.08,1.632Z" opacity="0.4"/>
  <path id="Path_126" data-name="Path 126" d="M623.778,429.665c0,16.61-4.935,28.355-12.562,33-1.6.909-7.177,4.341-9.469,5.721,7.306-4.846,12-16.424,12-32.629a93.911,93.911,0,0,0-.929-12.806c-3.365-24.131-15.718-48.027-30.443-56.946-6.825-4.139-13.138-4.442-18.265-1.6l9.453-5.722c5.24-3.214,11.777-3.062,18.842,1.229,14.725,8.935,27.078,32.814,30.443,56.962a90.871,90.871,0,0,1,.929,12.789Z" fill="#fff" opacity="0.4"/>
  <path id="Path_127" data-name="Path 127" d="M613.748,435.723c0,16.206-4.694,27.783-12,32.63,2.292-1.38,7.931-4.813,9.47-5.722,7.626-4.644,12.561-16.39,12.561-33v-1.851l-10.03,6.091C613.732,434.529,613.748,435.134,613.748,435.723Z" fill="#00b4d8"/>
  <path id="Path_128" data-name="Path 128" d="M613.748,435.723c0,16.206-4.694,27.783-12,32.63,2.292-1.38,7.931-4.813,9.47-5.722,7.626-4.644,12.561-16.39,12.561-33v-1.851l-10.03,6.091C613.732,434.529,613.748,435.134,613.748,435.723Z" opacity="0.1"/>
  <path id="Path_129" data-name="Path 129" d="M552.511,391.836v3.416l-89.757-54.421,1.651-1.01v-1.413Z" opacity="0.15"/>
  <path id="Path_130" data-name="Path 130" d="M552.511,393.25v2l-89.757-54.421,1.651-1.01V339.8Z" opacity="0.15"/>
  <path id="Path_131" data-name="Path 131" d="M591.541,462.648a18.563,18.563,0,0,1-9.613-3.012C567.3,450.768,555.4,424.382,555.4,400.823c0-13.749,3.957-24.014,10.863-28.2,4.807-2.928,10.495-2.558,16.471,1.06,14.612,8.868,26.517,35.339,26.517,58.9,0,13.731-3.958,24.013-10.863,28.186A13.124,13.124,0,0,1,591.541,462.648ZM573.2,372.367a11.668,11.668,0,0,0-6.089,1.682c-6.3,3.82-10.062,13.833-10.062,26.757,0,23.02,11.536,48.8,25.732,57.349,5.431,3.366,10.575,3.669,14.853,1.077,6.3-3.82,10.061-13.816,10.061-26.739,0-23.038-11.535-48.8-25.715-57.367a17.01,17.01,0,0,0-8.78-2.692Z" opacity="0.15"/>
  <path id="Path_132" data-name="Path 132" d="M555.267,374.672a42.4,42.4,0,0,0-3.205,10.248L462.674,330.7l10.03-6.075Z" fill="#fff" opacity="0.4"/>
  <path id="Path_133" data-name="Path 133" d="M671.444,379.939c4.679-9.306,10.03-30.206,12.69-40.757,3.781-14.977-2.34-24.4-9.293-24.788-4.342.707-18.65,55.347-18.65,55.347-1.6,1.33-23.345,12.924-30.33,15.835a5.23,5.23,0,0,1-3.878,0c-3.348-1.279-5.639-1.043-8.924-1.38-2.58-.269-3.877-1.228-4.214-.656a3.241,3.241,0,0,0-.11,2.254,3.058,3.058,0,0,0,1.376,1.734,20.465,20.465,0,0,0,4.486,2.053,26.151,26.151,0,0,1-8.668,1.229c-6.729-.152-9.149,2.911-3.925,10.1,3.2,4.476,8.507,5.889,20.348,1.6,3.4-1.245,8.011-3.651,12.321-5.284,8.876-3.365,11.216-3.769,17.977-6.176C662.5,387.545,669.361,384.079,671.444,379.939Z" fill="#ffa8a7"/>
  <path id="Path_134" data-name="Path 134" d="M672.229,312.981c4.086.589,8.011,1.548,10.431,5.048s4.358,8.414,1.986,21.792a217.457,217.457,0,0,1-7.274,27.733s-9.517,4.274-19.627-6.563l6.954-28.237S665.82,314.394,672.229,312.981Z" fill="#455a64"/>
</svg>
