<svg xmlns="http://www.w3.org/2000/svg" width="914" height="516" viewBox="0 0 914 516">
  <g id="undraw_profile_re_4a55" transform="translate(0)">
    <path id="Path_135" data-name="Path 135" d="M216.1,704.318l-.951-1.759c12.753-6.9,28.626-15.481,36.916-29.567,8.172-13.886,8.356-32.743.479-49.211-6.7-14.016-19.018-26.572-35.611-36.313-3.273-1.921-6.709-3.742-10.031-5.5-8.031-4.256-16.336-8.658-23.184-14.9-9.432-8.6-16.568-23.035-11.249-35.891A23.856,23.856,0,0,1,193.141,516.7l.113,2a21.86,21.86,0,0,0-18.948,13.248c-4.943,11.947,1.839,25.5,10.754,33.636,6.661,6.074,14.852,10.415,22.773,14.613,3.342,1.771,6.8,3.6,10.108,5.546,16.939,9.943,29.526,22.8,36.4,37.174,8.16,17.061,7.946,36.637-.559,51.089C245.211,688.572,229.068,697.3,216.1,704.318Z" transform="translate(-148.096 -188.573)" fill="#f1f1f1"/>
    <ellipse id="Ellipse_9" data-name="Ellipse 9" cx="17.5" cy="8.5" rx="17.5" ry="8.5" transform="translate(40.22 319.202)" fill="#f1f1f1"/>
    <ellipse id="Ellipse_10" data-name="Ellipse 10" cx="17.5" cy="8.5" rx="17.5" ry="8.5" transform="translate(54.22 375.982)" fill="#f1f1f1"/>
    <ellipse id="Ellipse_11" data-name="Ellipse 11" cx="17.5" cy="8.5" rx="17.5" ry="8.5" transform="translate(22.22 385.107)" fill="#f1f1f1"/>
    <ellipse id="Ellipse_12" data-name="Ellipse 12" cx="17.5" cy="8.5" rx="17.5" ry="8.5" transform="translate(72.22 433.671)" fill="#f1f1f1"/>
    <ellipse id="Ellipse_13" data-name="Ellipse 13" cx="17.5" cy="8.5" rx="17.5" ry="8.5" transform="translate(107.22 433.671)" fill="#f1f1f1"/>
    <rect id="Rectangle_62" data-name="Rectangle 62" width="562.796" height="267.056" transform="translate(351.203 15.429)" fill="#e6e6e6"/>
    <rect id="Rectangle_75" data-name="Rectangle 75" width="530.61" height="222.814" transform="translate(367.296 38.33)" fill="#fff"/>
    <rect id="Rectangle_80" data-name="Rectangle 80" width="562.796" height="23.909" transform="translate(350.963)" fill="#00b4d8"/>
    <circle id="Ellipse_90" data-name="Ellipse 90" cx="4.431" cy="4.431" r="4.431" transform="translate(358.14 6.628)" fill="#fff"/>
    <circle id="Ellipse_91" data-name="Ellipse 91" cx="4.431" cy="4.431" r="4.431" transform="translate(375.152 6.628)" fill="#fff"/>
    <circle id="Ellipse_92" data-name="Ellipse 92" cx="4.431" cy="4.431" r="4.431" transform="translate(392.165 6.628)" fill="#fff"/>
    <path id="Path_142" data-name="Path 142" d="M742.529,286.635a2.147,2.147,0,1,0,0,4.294h117.8a2.147,2.147,0,0,0,0-4.294Z" transform="translate(-140.374 -195.427)" fill="#e6e6e6"/>
    <path id="Path_143" data-name="Path 143" d="M742.529,299.518a2.147,2.147,0,1,0,0,4.294H802.67a2.147,2.147,0,1,0,0-4.294Z" transform="translate(-140.904 -194.014)" fill="#e6e6e6"/>
    <path id="Path_142-2" data-name="Path 142" d="M739.564,361.871a2.147,2.147,0,0,0,0,4.294H960.447a2.147,2.147,0,0,0,0-4.294Z" transform="translate(-137.904 -193.168)" fill="#e6e6e6"/>
    <path id="Path_143-2" data-name="Path 143" d="M739.564,374.754a2.147,2.147,0,1,0,0,4.294H902.785a2.147,2.147,0,1,0,0-4.294Z" transform="translate(-139.939 -192.993)" fill="#e6e6e6"/>
    <path id="Path_142-3" data-name="Path 142" d="M739.564,387.345a2.147,2.147,0,1,0,0,4.294H960.447a2.147,2.147,0,1,0,0-4.294Z" transform="translate(-137.904 -192.822)" fill="#e6e6e6"/>
    <path id="Path_143-3" data-name="Path 143" d="M739.564,400.227a2.147,2.147,0,1,0,0,4.294H902.785a2.147,2.147,0,1,0,0-4.294Z" transform="translate(-139.939 -192.647)" fill="#e6e6e6"/>
    <circle id="Ellipse_14" data-name="Ellipse 14" cx="18.694" cy="18.694" r="18.694" transform="translate(462.674 139.769)" fill="#a0616a"/>
    <path id="Path_136" data-name="Path 136" d="M618.165,336.934s8.724,2.337,13.242,3.272,4.05-1.714,4.05-1.714,5.92.779,5.608.156,2.493-3.895-.779-7.634-2.337-6.543-2.337-6.543h-2.8l-.779-1.091H630s-4.823-4.229-13.391-2.983-18.7,4.54-19.636,9.681c-.127.7-.294,1.472-.487,2.29-2.343,9.891,2.635,19.146,7.8,27.9,1.269,2.152,7.407,6.844,7.25,3.625s-5.525-10.45-1.786-10.917S619.879,343.01,618.165,336.934Z" transform="translate(-142.776 -193.586)" fill="#2f2e41"/>
    <path id="Path_137" data-name="Path 137" d="M613.48,412.325a65.379,65.379,0,0,1-10.7-1.758l.2-3.728,1.637-29.642.015-.227H637.56l5.168,27.293.7,3.682c-1.364.53-2.743,1.031-4.152,1.47-.016,0-.016.015-.03.015-1.955.606-3.94,1.137-5.941,1.576a68.559,68.559,0,0,1-8.062,1.243,62.027,62.027,0,0,1-6.3.3C617.117,412.552,615.284,412.477,613.48,412.325Z" transform="translate(-142.727 -192.8)" fill="#6c63ff"/>
    <path id="Path_138" data-name="Path 138" d="M592.309,407.051c-1.364-.591-2.682-1.228-3.985-1.894l-.561-.288c-.379-.2-.773-.409-1.151-.621q-.774-.432-1.5-.864c-.47-.273-.955-.561-1.424-.849-.03-.015-.045-.03-.076-.03-1.637-1.046-3.243-2.122-4.789-3.288l-.773-.591-.272-4.364.394-.243L604.615,377.2l.363-.227.03-.015,3.728.015v13.882c2.107,3.046,3.531,9.426,4.41,17.776.121,1.2.227,2.425.334,3.7a65.379,65.379,0,0,1-10.7-1.758c-.379-.076-.743-.167-1.122-.273a62.7,62.7,0,0,1-6.516-2.091c-.652-.243-1.288-.5-1.925-.758l-.061-.03C592.885,407.294,592.582,407.173,592.309,407.051Z" transform="translate(-143.052 -192.801)" fill="#2f2e41"/>
    <path id="Path_139" data-name="Path 139" d="M586.612,404.248q-.774-.432-1.5-.864c-.47-.273-.955-.561-1.424-.849-.03-.015-.045-.03-.076-.03-1.637-1.046-3.243-2.122-4.789-3.288l-.773-.591c-.121-.106-.242-.2-.379-.3-.969-.743-1.909-1.515-2.819-2.334-.045-.03-.076-.076-.121-.106a10.422,10.422,0,0,1,3.046-1.621l1.076.318,7.668,2.3.045,3.107Z" transform="translate(-143.221 -192.697)" fill="#2f2e41"/>
    <path id="Path_140" data-name="Path 140" d="M651.185,404.293c-.455.242-.909.485-1.364.712-.107.061-.2.106-.288.152-.607.3-1.2.606-1.8.894-.016.015-.046.015-.046.03-.03.015-.076.03-.106.046-1.364.652-2.743,1.258-4.153,1.818-1.364.53-2.743,1.031-4.152,1.47-.016,0-.016.015-.03.015-1.955.606-3.94,1.137-5.941,1.576a12.505,12.505,0,0,1,.485-3.683l.015-.212,1.3-21.095-1.743-9.047,5-.743,27.5,14.806s-3.031,3.031-15.473,9.487C649.3,401.091,650.911,402.99,651.185,404.293Z" transform="translate(-142.42 -192.815)" fill="#2f2e41"/>
    <path id="Path_141" data-name="Path 141" d="M624.907,408.612c-1.971.182-3.971.273-5.971.273-1.94,0-3.865-.076-5.789-.258.121,1.2.227,2.425.334,3.7,1.8.152,3.637.227,5.456.227a62.045,62.045,0,0,0,6.3-.3,68.547,68.547,0,0,0,8.062-1.243,12.505,12.505,0,0,1,.485-3.683l.015-.212a63,63,0,0,1-8.9,1.5Zm57.268-85.047a66.972,66.972,0,1,0-115.734,63.619c.606.758,1.228,1.515,1.864,2.243.061.061.091.106.136.152a63.817,63.817,0,0,0,4.986,5.137c.425.394.864.788,1.3,1.167.046.03.076.076.121.106.909.818,1.849,1.591,2.819,2.334.137.106.258.2.379.3l.773.591c1.546,1.167,3.152,2.243,4.789,3.288.03,0,.045.015.076.03.47.288.955.576,1.424.849q.728.432,1.5.864c.379.212.773.424,1.151.621l.561.288c1.3.667,2.622,1.3,3.985,1.894.273.121.576.242.849.364l.061.03c.636.258,1.273.515,1.925.758a62.7,62.7,0,0,0,6.516,2.091c.379.106.743.2,1.122.273a65.382,65.382,0,0,0,10.7,1.758c1.8.152,3.637.227,5.456.227a62.036,62.036,0,0,0,6.3-.3,68.548,68.548,0,0,0,8.062-1.243c2-.439,3.986-.97,5.941-1.576.015,0,.015-.015.03-.015,1.409-.439,2.788-.94,4.152-1.47,1.41-.561,2.789-1.167,4.153-1.818.03-.015.076-.03.106-.046,0-.015.03-.015.046-.03.606-.288,1.2-.591,1.8-.894.091-.046.181-.091.288-.152.454-.227.909-.47,1.364-.712.03-.015.045-.03.076-.046,1.2-.667,2.38-1.364,3.547-2.106.318-.2.636-.394.955-.621.47-.288.924-.606,1.364-.924.591-.409,1.182-.833,1.758-1.273a4.68,4.68,0,0,0,.545-.409c1.41-1.061,2.773-2.182,4.076-3.364a66.914,66.914,0,0,0,18.67-71.984Zm-19.807,68.074A64.813,64.813,0,0,1,657.216,396c-.394.3-.8.606-1.212.879-.394.3-.788.591-1.2.864-.349.243-.7.485-1.061.712-.03.03-.076.045-.106.076-.258.182-.531.349-.788.515-.8.5-1.637,1-2.455,1.47-.2.106-.379.227-.576.333-.107.061-.212.121-.334.182-.454.258-.909.485-1.364.727-.061.045-.136.061-.2.106a.112.112,0,0,0-.061.03c-.318.167-.636.318-.955.47-.273.136-.531.273-.8.394-1.106.53-2.243,1.03-3.379,1.5-1.2.485-2.409.924-3.637,1.334-.3.106-.622.227-.94.318-1.44.455-2.879.864-4.349,1.2a63.01,63.01,0,0,1-8.9,1.5c-1.97.182-3.971.273-5.971.273-1.94,0-3.865-.076-5.789-.258a62.372,62.372,0,0,1-10.169-1.788c-.121-.03-.258-.061-.379-.091a58.117,58.117,0,0,1-8.017-2.728c-.136-.061-.288-.106-.409-.167-.152-.061-.288-.106-.409-.167-.152-.061-.288-.121-.424-.182-1.137-.5-2.243-1.046-3.349-1.606l-.516-.273c-.985-.515-1.955-1.046-2.91-1.637-.333-.182-.682-.394-1.015-.606-.379-.227-.758-.47-1.122-.712l-.272-.182c-.849-.576-1.712-1.152-2.531-1.773-.576-.424-1.137-.833-1.7-1.273-.364-.273-.727-.561-1.076-.864-.227-.167-.454-.364-.682-.561-.3-.258-.606-.515-.909-.788-.47-.379-.909-.8-1.334-1.2a60.23,60.23,0,0,1-4.834-5c-.515-.576-1-1.152-1.47-1.758a3.651,3.651,0,0,1-.3-.379,63.3,63.3,0,1,1,93.048,6.744Z" transform="translate(-142.75 -193.908)" fill="#3f3d56"/>
    <path id="Path_142-4" data-name="Path 142" d="M163.436,496.7H175.7l5.832-47.288H163.434Z" transform="translate(1.881 6.854)" fill="#a0616a"/>
    <path id="Path_143-4" data-name="Path 143" d="M308.406,688.122h24.145a15.387,15.387,0,0,1,15.386,15.386v.5H308.406Z" transform="translate(-146.206 -188.573)" fill="#2f2e41"/>
    <path id="Path_144" data-name="Path 144" d="M209.436,496.7H221.7l5.832-47.288H209.434Z" transform="translate(2.41 6.854)" fill="#a0616a"/>
    <path id="Path_145" data-name="Path 145" d="M354.406,688.122h24.145a15.387,15.387,0,0,1,15.386,15.386v.5H354.406Z" transform="translate(-145.663 -188.573)" fill="#2f2e41"/>
    <path id="Path_146" data-name="Path 146" d="M274.333,505.267a10.056,10.056,0,0,0-1.883-15.3l8.518-34.7-17.492,6.233-5.407,32a10.11,10.11,0,0,0,16.265,11.775Z" transform="translate(-148.096 -191.521)" fill="#9e616a"/>
    <path id="Path_147" data-name="Path 147" d="M404.474,502.267a10.056,10.056,0,0,1,1.883-15.3l-8.518-34.7,17.492,6.233,5.407,32a10.11,10.11,0,0,1-16.265,11.775Z" transform="translate(-145.203 -191.566)" fill="#9e616a"/>
    <path id="Path_148" data-name="Path 148" d="M142.367,285.513,159.36,484.578l24.864-2.267,9.951-153.85,8.858,60.918,1.774,96.766,22.5-1.5,12.494-104.1-3.065-100.817-85.417-8.65Z" transform="translate(1.8 6.854)" fill="#2f2e41"/>
    <circle id="Ellipse_15" data-name="Ellipse 15" cx="25.786" cy="25.786" r="25.786" transform="translate(165.28 52.797)" fill="#a0616a"/>
    <path id="Path_149" data-name="Path 149" d="M329.043,253.381s12.033,3.223,18.265,4.513,5.587-2.364,5.587-2.364,8.165,1.074,7.736.215,3.438-5.372-1.074-10.529-3.223-9.025-3.223-9.025h-3.868l-1.074-1.5h-6.017s-6.652-5.833-18.47-4.114-25.8,6.263-27.084,13.354c-.175.962-.405,2.03-.672,3.159-3.232,13.644,3.635,26.409,10.757,38.487,1.75,2.968,10.217,9.441,10,5s-7.621-14.414-2.464-15.059S331.407,261.762,329.043,253.381Z" transform="translate(-146.274 -195.427)" fill="#2f2e41"/>
    <path id="Path_150" data-name="Path 150" d="M310.376,308.6h45.412L387.9,478.179s-27.994,2.394-43.994,8.394-42.6-13.706-42.6-13.706Z" transform="translate(-146.186 -193.077)" fill="#00b4d8"/>
    <path id="Path_151" data-name="Path 151" d="M316.045,327.754V308.6l-5.142-.031-37.567,23.885,8.152,130.863s9.648,43.658,24.282,43.205S331.687,350.435,316.045,327.754Z" transform="translate(-148.096 -192.935)" fill="#2f2e41"/>
    <path id="Path_152" data-name="Path 152" d="M285.4,336.073l-12.067-3.615s-8.933,2.615-8.933,11.615-7.7,136.868-7.7,136.868l24.451,2.161,5.246-65.029Z" transform="translate(-148.096 -192.807)" fill="#2f2e41"/>
    <path id="Path_153" data-name="Path 153" d="M352.4,321.073,350,308.6l6.905-1.031,25,10s22.5,164.5,12.5,169.5-16.752,1.126-16.752,1.126-32.892-121.326-27.07-137.726Z" transform="translate(-145.696 -193.077)" fill="#2f2e41"/>
    <path id="Path_154" data-name="Path 154" d="M364.4,320.073l4.267-1.857s12.523-6.206,19.628,6.326S420.4,477.073,420.4,477.073l-20.57,3.868-15.379-50.384Z" transform="translate(-145.496 -193.018)" fill="#2f2e41"/>
    <path id="Path_155" data-name="Path 155" d="M530.1,704.573h-381a1,1,0,0,1,0-2h381a1,1,0,0,1,0,2Z" transform="translate(-148.096 -188.573)" fill="#cacaca"/>
  </g>
</svg>
