<svg id="login_1" data-name="login 1" xmlns="http://www.w3.org/2000/svg" width="341" height="224.983" viewBox="0 0 341 224.983">
  <path id="Vector" d="M6.432,72.029A20.456,20.456,0,0,1,.11,55.265c.7-6.261,5-12.017,10.59-13.347s11.956,2.351,13.653,8.374c.934-11.613,2.01-23.713,7.6-33.6C37.024,7.736,45.8,1.328,55.306.182A27.682,27.682,0,0,1,80.757,11.648a31.457,31.457,0,0,1,3.229,29.834c-3.06,7.005-8.7,12.219-14.6,16.46A87.2,87.2,0,0,1,4.925,73.506Z" transform="translate(254.645 150.427)" fill="#f2f2f2"/>
  <path id="Vector-2" data-name="Vector" d="M45.763.239a163,163,0,0,0-21.489,23.55A175.086,175.086,0,0,0,.07,68.428c-.436,1.179,1.3,1.692,1.729.526A169.561,169.561,0,0,1,47.031,1.638C47.927.834,46.651-.559,45.763.239Z" transform="translate(280.236 153.793)" fill="#fff"/>
  <path id="Vector-3" data-name="Vector" d="M109.773,98.932a28.1,28.1,0,0,0,8.683-23.025c-.955-8.6-6.871-16.505-14.545-18.332S87.49,60.8,85.159,69.077C83.876,53.127,82.4,36.508,74.714,22.924,67.756,10.625,55.705,1.824,42.645.25A38.022,38.022,0,0,0,7.689,16C-.457,27.375-2.451,43.915,3.254,56.976,7.456,66.6,15.2,73.759,23.311,79.584,49.191,98.17,81.3,105.922,111.844,100.96" transform="translate(0 122.418)" fill="#f2f2f2"/>
  <path id="Vector-4" data-name="Vector" d="M2.161.328A223.883,223.883,0,0,1,31.676,32.674a239.9,239.9,0,0,1,23.277,38.02A247.908,247.908,0,0,1,64.92,93.987c.6,1.619-1.783,2.324-2.375.723A241.132,241.132,0,0,0,43.336,54.6,230.747,230.747,0,0,0,17.573,19.473,220.232,220.232,0,0,0,.419,2.25C-.811,1.145.941-.768,2.161.328Z" transform="translate(18.443 127.041)" fill="#fff"/>
  <path id="Vector-5" data-name="Vector" d="M143.063,224.507H0v-162C0,28.041,25.407,0,56.637,0H86.426c31.23,0,56.637,28.041,56.637,62.507Z" transform="translate(101.712 0)" fill="#f2f2f2"/>
  <path id="Vector-6" data-name="Vector" d="M113.275,224.506H0v-162A66.451,66.451,0,0,1,10.816,25.761c.26-.391.52-.778.787-1.16A59.653,59.653,0,0,1,23.658,11.688c.259-.208.518-.412.782-.616a54.857,54.857,0,0,1,12.336-7.12c.259-.108.523-.217.786-.321A52.062,52.062,0,0,1,49.755.458c.258-.039.522-.069.787-.1a51.986,51.986,0,0,1,12.192,0c.264.03.529.061.789.1a52.053,52.053,0,0,1,12.19,3.173c.264.1.528.213.787.321a54.7,54.7,0,0,1,12.192,7.015c.263.2.527.4.786.608a59.086,59.086,0,0,1,7.206,6.733,61.031,61.031,0,0,1,4.987,6.294c.267.381.526.767.786,1.158a66.451,66.451,0,0,1,10.817,36.746Z" transform="translate(101.712 0.002)" fill="#ccc"/>
  <path id="Vector-7" data-name="Vector" d="M12.543,6.921c0,3.822-2.808,6.921-6.271,6.921S0,10.744,0,6.921,2.808,0,6.271,0,12.543,3.1,12.543,6.921Z" transform="translate(199.505 138.208)" fill="#700bef"/>
  <path id="Vector-8" data-name="Vector" d="M7.092,20.456H2.286L0,0H7.092Z" transform="translate(225.964 199.2)" fill="#ffb8b8"/>
  <path id="Vector-9" data-name="Vector" d="M5.835,0H15.1V6.44H0A7.023,7.023,0,0,1,.444,3.975,6.521,6.521,0,0,1,1.709,1.886,5.833,5.833,0,0,1,3.6.49,5.363,5.363,0,0,1,5.835,0Z" transform="translate(218.983 218.14)" fill="#2f2e41"/>
  <path id="Vector-10" data-name="Vector" d="M7.092,20.456H2.286L0,0H7.092Z" transform="translate(249.873 199.2)" fill="#ffb8b8"/>
  <path id="Vector-11" data-name="Vector" d="M5.835,0H15.1V6.44H0A7.023,7.023,0,0,1,.444,3.975,6.521,6.521,0,0,1,1.709,1.886,5.833,5.833,0,0,1,3.6.49,5.363,5.363,0,0,1,5.835,0Z" transform="translate(242.892 218.14)" fill="#2f2e41"/>
  <path id="Vector-12" data-name="Vector" d="M.727,56.542A4.934,4.934,0,0,1,.053,54.67a5.113,5.113,0,0,1,.107-2.01,4.814,4.814,0,0,1,.868-1.771,4.269,4.269,0,0,1,1.466-1.2L18.83,0l8.038,4.841L8.216,52.325a5.126,5.126,0,0,1-.029,3.319,4.54,4.54,0,0,1-2.019,2.46,3.877,3.877,0,0,1-2.99.36A4.271,4.271,0,0,1,.727,56.542Z" transform="translate(208.223 89.959)" fill="#ffb8b8"/>
  <path id="Vector-13" data-name="Vector" d="M6.194,59.577a4.4,4.4,0,0,1-1.349-1.356,4.918,4.918,0,0,1-.7-1.859A5.115,5.115,0,0,1,4.22,54.35a4.832,4.832,0,0,1,.841-1.787L0,0,9.147.461l2.1,51.7a4.883,4.883,0,0,1,1.293,3,5.024,5.024,0,0,1-.837,3.188,4.208,4.208,0,0,1-2.544,1.77,3.9,3.9,0,0,1-2.967-.542Z" transform="translate(248.316 96.26)" fill="#ffb8b8"/>
  <path id="Vector-14" data-name="Vector" d="M19.254,10.625c0,5.868-4.31,10.625-9.627,10.625S0,16.492,0,10.625,4.31,0,9.627,0,19.254,4.757,19.254,10.625Z" transform="translate(230.291 59.506)" fill="#ffb8b8"/>
  <path id="Vector-15" data-name="Vector" d="M29.023,59.209H0l.035-.249c.052-.373,5.173-37.392,1.4-49.5A5.605,5.605,0,0,1,1.525,5.8,4.931,4.931,0,0,1,3.81,3.149h0c5.4-2.805,15.76-6.26,24.505,2.124A12.277,12.277,0,0,1,31.25,9.85a13.365,13.365,0,0,1,.772,5.543Z" transform="translate(225.426 84.675)" fill="#700bef"/>
  <path id="Vector-16" data-name="Vector" d="M13.066,23.471,0,20.545,6.125,4.527A6.025,6.025,0,0,1,8.653.835,5.042,5.042,0,0,1,12.8.192a5.578,5.578,0,0,1,3.351,2.781,6.6,6.6,0,0,1,.593,4.581Z" transform="translate(217.933 88.242)" fill="#700bef"/>
  <path id="Vector-17" data-name="Vector" d="M.893,27.8.108,7.925C-.488,4.189,1.45.657,4.43.08S10.322,2.1,10.92,5.859l2.953,18.57Z" transform="translate(246.842 89.348)" fill="#700bef"/>
  <path id="Vector-18" data-name="Vector" d="M29.621,0c4.67,19.629,5.179,44.585,3.92,71.808l-6.271-.865L15.9,19.033,9.631,71.808l-7.055-.433C.468,42.812-1.584,18.291,1.792,2.163Z" transform="translate(223.862 141.504)" fill="#2f2e41"/>
  <path id="Vector-19" data-name="Vector" d="M17.9,23.732a3.046,3.046,0,0,1-5.365-1.906,3.844,3.844,0,0,1,0-.673c.121-1.278.79-2.438.629-3.787a2.109,2.109,0,0,0-.329-.93c-1.431-2.115-4.791.946-6.141-.969-.828-1.174.145-3.022-.49-4.335C5.37,9.4,2.885,10.256,1.327,9.307-.406,8.252-.3,5.316.839,3.531A8.011,8.011,0,0,1,7.08.024a15.387,15.387,0,0,1,7.052,1.519,14.169,14.169,0,0,1,6.663,5.1c1.913,3.016,2.1,7.072,1.14,10.6C21.354,19.387,19.368,22.008,17.9,23.732Z" transform="translate(228.359 54.609)" fill="#2f2e41"/>
  <path id="Vector-20" data-name="Vector" d="M289.843,1.03H.465A.446.446,0,0,1,.136.879.543.543,0,0,1,0,.515.543.543,0,0,1,.136.151.446.446,0,0,1,.465,0H289.843a.446.446,0,0,1,.329.151.543.543,0,0,1,.136.364.543.543,0,0,1-.136.364.446.446,0,0,1-.329.151Z" transform="translate(39.392 223.756)" fill="#3f3d56"/>
  <path id="Vector-21" data-name="Vector" d="M53.5,131.071H2.548a2.417,2.417,0,0,1-1.794-.806A2.946,2.946,0,0,1,0,128.3V2.775A2.947,2.947,0,0,1,.754.806,2.417,2.417,0,0,1,2.548,0H53.5A2.417,2.417,0,0,1,55.3.806a2.947,2.947,0,0,1,.754,1.969V128.3a2.946,2.946,0,0,1-.754,1.969,2.417,2.417,0,0,1-1.794.806Z" transform="translate(130.325 46.502)" fill="#fff"/>
  <path id="Vector-22" data-name="Vector" d="M0,0H56.049V.865H0Z" transform="translate(130.325 87.117)" fill="#ccc"/>
  <path id="Vector-23" data-name="Vector" d="M0,0H56.049V.865H0Z" transform="translate(130.521 136.478)" fill="#ccc"/>
  <path id="Vector-24" data-name="Vector" d="M0,0H.784V131.5H0Z" transform="translate(147.963 46.502)" fill="#ccc"/>
  <path id="Vector-25" data-name="Vector" d="M0,0H.784V131.5H0Z" transform="translate(167.56 46.502)" fill="#ccc"/>
</svg>
